<?xml version="1.0" encoding="utf-8"?>
<!-- Generator: Adobe Illustrator 16.0.0, SVG Export Plug-In . SVG Version: 6.00 Build 0)  -->
<!DOCTYPE svg PUBLIC "-//W3C//DTD SVG 1.1//EN" "http://www.w3.org/Graphics/SVG/1.1/DTD/svg11.dtd">
<svg version="1.1" id="Слой_1" xmlns="http://www.w3.org/2000/svg" xmlns:xlink="http://www.w3.org/1999/xlink" x="0px" y="0px"
	 width="217.5px" height="166px" viewBox="0 0 217.5 166" enable-background="new 0 0 217.5 166" xml:space="preserve">
<g>
	<defs>
		<rect id="SVGID_25_" x="-403.174" y="-1824.23" width="1024" height="2949"/>
	</defs>
	<clipPath id="SVGID_2_">
		<use xlink:href="#SVGID_25_"  overflow="visible"/>
	</clipPath>
	<g clip-path="url(#SVGID_2_)">
		<defs>
			<path id="SVGID_27_" d="M72.612,161.446h72.205V5.258H72.612V161.446z M70.631,3.271h76.168v160.163H70.631V3.271z"/>
		</defs>
		<clipPath id="SVGID_4_">
			<use xlink:href="#SVGID_27_"  overflow="visible"/>
		</clipPath>
		<rect x="65.631" y="-1.729" clip-path="url(#SVGID_4_)" fill="#4077B6" width="86.168" height="170.163"/>
	</g>
</g>
<g>
	<defs>
		<rect id="SVGID_29_" x="-403.174" y="-1824.23" width="1024" height="2949"/>
	</defs>
	<clipPath id="SVGID_6_">
		<use xlink:href="#SVGID_29_"  overflow="visible"/>
	</clipPath>
	<g clip-path="url(#SVGID_6_)">
		<defs>
			<path id="SVGID_31_" d="M86.203,88.263h45.023V37.206c0-9.903-10.52-18.589-22.512-18.589c-11.991,0-22.512,8.686-22.512,18.589
				V88.263z M133.208,90.25H84.22V37.206c0-10.96,11.447-20.576,24.495-20.576c13.049,0,24.493,9.616,24.493,20.576V90.25z"/>
		</defs>
		<clipPath id="SVGID_8_">
			<use xlink:href="#SVGID_31_"  overflow="visible"/>
		</clipPath>
		<rect x="79.22" y="11.63" clip-path="url(#SVGID_8_)" fill="#4077B6" width="58.988" height="83.62"/>
	</g>
</g>
<g>
	<defs>
		<rect id="SVGID_33_" x="-403.174" y="-1824.23" width="1024" height="2949"/>
	</defs>
	<clipPath id="SVGID_10_">
		<use xlink:href="#SVGID_33_"  overflow="visible"/>
	</clipPath>
	<g clip-path="url(#SVGID_10_)">
		<defs>
			<path id="SVGID_35_" d="M132.218,98.958c-1.671,0-3.028,1.361-3.028,3.035s1.357,3.035,3.028,3.035
				c1.668,0,3.025-1.361,3.025-3.035S133.886,98.958,132.218,98.958z M132.218,107.016c-2.763,0-5.01-2.254-5.01-5.022
				c0-2.771,2.247-5.022,5.01-5.022c2.76,0,5.007,2.252,5.007,5.022C137.225,104.762,134.978,107.016,132.218,107.016z"/>
		</defs>
		<clipPath id="SVGID_12_">
			<use xlink:href="#SVGID_35_"  overflow="visible"/>
		</clipPath>
		<rect x="122.208" y="91.971" clip-path="url(#SVGID_12_)" fill="#4077B6" width="20.017" height="20.045"/>
	</g>
</g>
<g>
	<defs>
		<rect id="SVGID_37_" x="-403.174" y="-1824.23" width="1024" height="2949"/>
	</defs>
	<clipPath id="SVGID_14_">
		<use xlink:href="#SVGID_37_"  overflow="visible"/>
	</clipPath>
	<g clip-path="url(#SVGID_14_)">
		<defs>
			<polyline id="SVGID_39_" points="120.156,158.133 75.918,158.133 75.918,128.403 77.899,128.403 77.899,156.145 120.156,156.145 
				120.156,158.133 			"/>
		</defs>
		<clipPath id="SVGID_16_">
			<use xlink:href="#SVGID_39_"  overflow="visible"/>
		</clipPath>
		<rect x="70.918" y="123.403" clip-path="url(#SVGID_16_)" fill="#4077B6" width="54.238" height="39.729"/>
	</g>
</g>
<g>
	<defs>
		<rect id="SVGID_41_" x="-403.174" y="-1824.23" width="1024" height="2949"/>
	</defs>
	<clipPath id="SVGID_18_">
		<use xlink:href="#SVGID_41_"  overflow="visible"/>
	</clipPath>
	<g clip-path="url(#SVGID_18_)">
		<defs>
			<polyline id="SVGID_43_" points="141.316,35.477 139.335,35.477 139.335,10.562 130.936,10.562 130.936,8.573 141.316,8.573 
				141.316,35.477 			"/>
		</defs>
		<clipPath id="SVGID_20_">
			<use xlink:href="#SVGID_43_"  overflow="visible"/>
		</clipPath>
		<rect x="125.936" y="3.573" clip-path="url(#SVGID_20_)" fill="#4077B6" width="20.381" height="36.903"/>
	</g>
</g>
<g>
	<defs>
		<rect id="SVGID_45_" x="-403.174" y="-1824.23" width="1024" height="2949"/>
	</defs>
	<clipPath id="SVGID_22_">
		<use xlink:href="#SVGID_45_"  overflow="visible"/>
	</clipPath>
	<g clip-path="url(#SVGID_22_)">
		<defs>
			<rect id="SVGID_47_" x="107.725" y="21.639" width="1.981" height="64.954"/>
		</defs>
		<clipPath id="SVGID_24_">
			<use xlink:href="#SVGID_47_"  overflow="visible"/>
		</clipPath>
		<rect x="102.725" y="16.639" clip-path="url(#SVGID_24_)" fill="#4077B6" width="11.981" height="74.954"/>
	</g>
</g>
<g>
	<defs>
		<rect id="SVGID_49_" x="-403.174" y="-1824.23" width="1024" height="2949"/>
	</defs>
	<clipPath id="SVGID_26_">
		<use xlink:href="#SVGID_49_"  overflow="visible"/>
	</clipPath>
	<g clip-path="url(#SVGID_26_)">
		<defs>
			<rect id="SVGID_51_" x="88.142" y="44.145" width="16.317" height="1.987"/>
		</defs>
		<clipPath id="SVGID_28_">
			<use xlink:href="#SVGID_51_"  overflow="visible"/>
		</clipPath>
		<rect x="83.142" y="39.145" clip-path="url(#SVGID_28_)" fill="#4077B6" width="26.317" height="11.987"/>
	</g>
</g>
<g>
	<defs>
		<rect id="SVGID_53_" x="-403.174" y="-1824.23" width="1024" height="2949"/>
	</defs>
	<clipPath id="SVGID_30_">
		<use xlink:href="#SVGID_53_"  overflow="visible"/>
	</clipPath>
	<g clip-path="url(#SVGID_30_)">
		<defs>
			<rect id="SVGID_55_" x="113.08" y="44.145" width="15.682" height="1.987"/>
		</defs>
		<clipPath id="SVGID_32_">
			<use xlink:href="#SVGID_55_"  overflow="visible"/>
		</clipPath>
		<rect x="108.08" y="39.145" clip-path="url(#SVGID_32_)" fill="#4077B6" width="25.682" height="11.987"/>
	</g>
</g>
<g>
	<defs>
		<rect id="SVGID_57_" x="-403.174" y="-1824.23" width="1024" height="2949"/>
	</defs>
	<clipPath id="SVGID_34_">
		<use xlink:href="#SVGID_57_"  overflow="visible"/>
	</clipPath>
	<g clip-path="url(#SVGID_34_)">
		<defs>
			<polyline id="SVGID_59_" points="60.737,63.352 58.756,63.352 58.756,40.396 51.072,40.396 51.072,38.408 60.737,38.408 
				60.737,63.352 			"/>
		</defs>
		<clipPath id="SVGID_36_">
			<use xlink:href="#SVGID_59_"  overflow="visible"/>
		</clipPath>
		<rect x="46.072" y="33.408" clip-path="url(#SVGID_36_)" fill="#4077B6" width="19.665" height="34.943"/>
	</g>
</g>
<g>
	<defs>
		<rect id="SVGID_61_" x="-403.174" y="-1824.23" width="1024" height="2949"/>
	</defs>
	<clipPath id="SVGID_38_">
		<use xlink:href="#SVGID_61_"  overflow="visible"/>
	</clipPath>
	<g clip-path="url(#SVGID_38_)">
		<defs>
			<path id="SVGID_63_" d="M5.034,161.446h58.387V34.721H5.034V161.446z M3.053,32.733h62.35v130.7H3.053V32.733z"/>
		</defs>
		<clipPath id="SVGID_40_">
			<use xlink:href="#SVGID_63_"  overflow="visible"/>
		</clipPath>
		<rect x="-1.947" y="27.733" clip-path="url(#SVGID_40_)" fill="#4077B6" width="72.35" height="140.7"/>
	</g>
</g>
<g>
	<defs>
		<rect id="SVGID_65_" x="-403.174" y="-1824.23" width="1024" height="2949"/>
	</defs>
	<clipPath id="SVGID_42_">
		<use xlink:href="#SVGID_65_"  overflow="visible"/>
	</clipPath>
	<g clip-path="url(#SVGID_42_)">
		<defs>
			<path id="SVGID_67_" d="M53.921,100.294c-1.256,0-2.276,1.025-2.276,2.286c0,1.26,1.021,2.283,2.276,2.283
				c1.257,0,2.279-1.023,2.279-2.283C56.2,101.319,55.178,100.294,53.921,100.294z M53.921,106.851
				c-2.348,0-4.258-1.916-4.258-4.271c0-2.357,1.91-4.274,4.258-4.274c2.351,0,4.261,1.917,4.261,4.274
				C58.182,104.935,56.271,106.851,53.921,106.851z"/>
		</defs>
		<clipPath id="SVGID_44_">
			<use xlink:href="#SVGID_67_"  overflow="visible"/>
		</clipPath>
		<rect x="44.663" y="93.306" clip-path="url(#SVGID_44_)" fill="#4077B6" width="18.519" height="18.545"/>
	</g>
</g>
<g>
	<defs>
		<rect id="SVGID_69_" x="-403.174" y="-1824.23" width="1024" height="2949"/>
	</defs>
	<clipPath id="SVGID_46_">
		<use xlink:href="#SVGID_69_"  overflow="visible"/>
	</clipPath>
	<g clip-path="url(#SVGID_46_)">
		<defs>
			<polyline id="SVGID_71_" points="44,158.987 7.816,158.987 7.816,65.73 9.798,65.73 9.798,157 44,157 44,158.987 			"/>
		</defs>
		<clipPath id="SVGID_48_">
			<use xlink:href="#SVGID_71_"  overflow="visible"/>
		</clipPath>
		<rect x="2.816" y="60.73" clip-path="url(#SVGID_48_)" fill="#4077B6" width="46.184" height="103.257"/>
	</g>
</g>
<g>
	<defs>
		<rect id="SVGID_73_" x="-403.174" y="-1824.23" width="1024" height="2949"/>
	</defs>
	<clipPath id="SVGID_50_">
		<use xlink:href="#SVGID_73_"  overflow="visible"/>
	</clipPath>
	<g clip-path="url(#SVGID_50_)">
		<defs>
			<polyline id="SVGID_75_" points="209.715,63.352 207.733,63.352 207.733,40.396 200.048,40.396 200.048,38.408 209.715,38.408 
				209.715,63.352 			"/>
		</defs>
		<clipPath id="SVGID_52_">
			<use xlink:href="#SVGID_75_"  overflow="visible"/>
		</clipPath>
		<rect x="195.048" y="33.408" clip-path="url(#SVGID_52_)" fill="#4077B6" width="19.667" height="34.943"/>
	</g>
</g>
<g>
	<defs>
		<rect id="SVGID_77_" x="-403.174" y="-1824.23" width="1024" height="2949"/>
	</defs>
	<clipPath id="SVGID_54_">
		<use xlink:href="#SVGID_77_"  overflow="visible"/>
	</clipPath>
	<g clip-path="url(#SVGID_54_)">
		<defs>
			<path id="SVGID_79_" d="M154.01,161.446h58.389V34.721H154.01V161.446z M152.028,32.733h62.352v130.7h-62.352V32.733z"/>
		</defs>
		<clipPath id="SVGID_56_">
			<use xlink:href="#SVGID_79_"  overflow="visible"/>
		</clipPath>
		<rect x="147.028" y="27.733" clip-path="url(#SVGID_56_)" fill="#4077B6" width="72.352" height="140.7"/>
	</g>
</g>
<g>
	<defs>
		<rect id="SVGID_81_" x="-403.174" y="-1824.23" width="1024" height="2949"/>
	</defs>
	<clipPath id="SVGID_58_">
		<use xlink:href="#SVGID_81_"  overflow="visible"/>
	</clipPath>
	<g clip-path="url(#SVGID_58_)">
		<defs>
			<path id="SVGID_83_" d="M202.896,100.294c-1.254,0-2.276,1.025-2.276,2.286c0,1.26,1.022,2.283,2.276,2.283
				c1.257,0,2.279-1.023,2.279-2.283C205.176,101.319,204.153,100.294,202.896,100.294z M202.896,106.851
				c-2.348,0-4.258-1.916-4.258-4.271c0-2.357,1.91-4.274,4.258-4.274c2.349,0,4.261,1.917,4.261,4.274
				C207.157,104.935,205.245,106.851,202.896,106.851z"/>
		</defs>
		<clipPath id="SVGID_60_">
			<use xlink:href="#SVGID_83_"  overflow="visible"/>
		</clipPath>
		<rect x="193.639" y="93.306" clip-path="url(#SVGID_60_)" fill="#4077B6" width="18.519" height="18.545"/>
	</g>
</g>
<g>
	<defs>
		<rect id="SVGID_85_" x="-403.174" y="-1824.23" width="1024" height="2949"/>
	</defs>
	<clipPath id="SVGID_62_">
		<use xlink:href="#SVGID_85_"  overflow="visible"/>
	</clipPath>
	<g clip-path="url(#SVGID_62_)">
		<defs>
			<polyline id="SVGID_87_" points="192.974,158.987 156.792,158.987 156.792,65.73 158.773,65.73 158.773,157 192.974,157 
				192.974,158.987 			"/>
		</defs>
		<clipPath id="SVGID_64_">
			<use xlink:href="#SVGID_87_"  overflow="visible"/>
		</clipPath>
		<rect x="151.792" y="60.73" clip-path="url(#SVGID_64_)" fill="#4077B6" width="46.182" height="103.257"/>
	</g>
</g>
<g>
	<defs>
		<rect id="SVGID_89_" x="-403.174" y="-1824.23" width="1024" height="2949"/>
	</defs>
	<clipPath id="SVGID_66_">
		<use xlink:href="#SVGID_89_"  overflow="visible"/>
	</clipPath>
</g>
<g>
	<defs>
		<rect id="SVGID_93_" x="-403.174" y="-1824.23" width="1024" height="2949"/>
	</defs>
	<clipPath id="SVGID_68_">
		<use xlink:href="#SVGID_93_"  overflow="visible"/>
	</clipPath>
</g>
<g>
	<defs>
		<rect id="SVGID_97_" x="-403.174" y="-1824.23" width="1024" height="2949"/>
	</defs>
	<clipPath id="SVGID_70_">
		<use xlink:href="#SVGID_97_"  overflow="visible"/>
	</clipPath>
</g>
<g>
	<defs>
		<rect id="SVGID_101_" x="-403.174" y="-1824.23" width="1024" height="2949"/>
	</defs>
	<clipPath id="SVGID_72_">
		<use xlink:href="#SVGID_101_"  overflow="visible"/>
	</clipPath>
</g>
<g>
	<defs>
		<rect id="SVGID_105_" x="-403.174" y="-1824.23" width="1024" height="2949"/>
	</defs>
	<clipPath id="SVGID_74_">
		<use xlink:href="#SVGID_105_"  overflow="visible"/>
	</clipPath>
</g>
<g>
	<defs>
		<rect id="SVGID_109_" x="-403.174" y="-1824.23" width="1024" height="2949"/>
	</defs>
	<clipPath id="SVGID_76_">
		<use xlink:href="#SVGID_109_"  overflow="visible"/>
	</clipPath>
</g>
<g>
	<defs>
		<rect id="SVGID_113_" x="-403.174" y="-1824.23" width="1024" height="2949"/>
	</defs>
	<clipPath id="SVGID_78_">
		<use xlink:href="#SVGID_113_"  overflow="visible"/>
	</clipPath>
</g>
<g>
	<defs>
		<rect id="SVGID_117_" x="-403.174" y="-1824.23" width="1024" height="2949"/>
	</defs>
	<clipPath id="SVGID_80_">
		<use xlink:href="#SVGID_117_"  overflow="visible"/>
	</clipPath>
</g>
<g>
	<defs>
		<rect id="SVGID_121_" x="-403.174" y="-1824.23" width="1024" height="2949"/>
	</defs>
	<clipPath id="SVGID_82_">
		<use xlink:href="#SVGID_121_"  overflow="visible"/>
	</clipPath>
</g>
<g>
	<defs>
		<rect id="SVGID_125_" x="-403.174" y="-1824.23" width="1024" height="2949"/>
	</defs>
	<clipPath id="SVGID_84_">
		<use xlink:href="#SVGID_125_"  overflow="visible"/>
	</clipPath>
</g>
<g>
	<defs>
		<rect id="SVGID_129_" x="-403.174" y="-1824.23" width="1024" height="2949"/>
	</defs>
	<clipPath id="SVGID_86_">
		<use xlink:href="#SVGID_129_"  overflow="visible"/>
	</clipPath>
</g>
<g>
	<defs>
		<rect id="SVGID_133_" x="-403.174" y="-1824.23" width="1024" height="2949"/>
	</defs>
	<clipPath id="SVGID_88_">
		<use xlink:href="#SVGID_133_"  overflow="visible"/>
	</clipPath>
</g>
<g>
	<defs>
		<rect id="SVGID_137_" x="-403.174" y="-1824.23" width="1024" height="2949"/>
	</defs>
	<clipPath id="SVGID_90_">
		<use xlink:href="#SVGID_137_"  overflow="visible"/>
	</clipPath>
</g>
<g>
	<defs>
		<rect id="SVGID_141_" x="-403.174" y="-1824.23" width="1024" height="2949"/>
	</defs>
	<clipPath id="SVGID_92_">
		<use xlink:href="#SVGID_141_"  overflow="visible"/>
	</clipPath>
</g>
<g>
	<defs>
		<rect id="SVGID_145_" x="-403.174" y="-1824.23" width="1024" height="2949"/>
	</defs>
	<clipPath id="SVGID_94_">
		<use xlink:href="#SVGID_145_"  overflow="visible"/>
	</clipPath>
</g>
</svg>
