<?xml version="1.0" encoding="utf-8"?>
<!-- Generator: Adobe Illustrator 16.0.0, SVG Export Plug-In . SVG Version: 6.00 Build 0)  -->
<!DOCTYPE svg PUBLIC "-//W3C//DTD SVG 1.1//EN" "http://www.w3.org/Graphics/SVG/1.1/DTD/svg11.dtd">
<svg version="1.1" id="Слой_1" xmlns="http://www.w3.org/2000/svg" xmlns:xlink="http://www.w3.org/1999/xlink" x="0px" y="0px"
	 width="217.855px" height="33.683px" viewBox="0 0 217.855 33.683" enable-background="new 0 0 217.855 33.683"
	 xml:space="preserve">
<g>
	<polyline fill-rule="evenodd" clip-rule="evenodd" fill="#89BE4C" points="21.145,4.064 27.789,4.064 27.789,13.568 35.275,13.568 
		35.275,4.064 41.916,4.064 41.916,29.592 35.275,29.592 35.275,19.456 27.789,19.456 27.789,29.592 21.145,29.592 21.145,4.064 	
		"/>
	<path fill-rule="evenodd" clip-rule="evenodd" fill="#89BE4C" d="M51.919,19.849c0,1.702,0.29,3.054,0.869,4.045
		c0.576,0.998,1.458,1.492,2.642,1.492c1.158,0,2.033-0.494,2.625-1.492c0.592-0.991,0.892-2.343,0.892-4.045
		s-0.299-3.047-0.892-4.042c-0.592-0.998-1.467-1.492-2.625-1.492c-1.184,0-2.066,0.494-2.642,1.492
		C52.208,16.802,51.919,18.146,51.919,19.849z M46.089,19.849c0-1.623,0.254-3.069,0.769-4.336c0.518-1.271,1.203-2.341,2.065-3.201
		c0.866-0.864,1.863-1.528,2.996-1.986c1.129-0.455,2.304-0.688,3.51-0.688c1.213,0,2.377,0.232,3.494,0.688
		c1.123,0.458,2.111,1.122,2.977,1.986c0.859,0.86,1.547,1.931,2.062,3.201c0.515,1.267,0.775,2.713,0.775,4.336
		c0,1.627-0.261,3.07-0.775,4.343c-0.515,1.27-1.203,2.337-2.062,3.201c-0.866,0.86-1.854,1.521-2.977,1.983
		c-1.116,0.454-2.281,0.684-3.494,0.684c-1.207,0-2.381-0.229-3.51-0.684c-1.133-0.462-2.13-1.123-2.996-1.983
		c-0.862-0.864-1.547-1.932-2.065-3.201C46.343,22.919,46.089,21.476,46.089,19.849z"/>
	<path fill-rule="evenodd" clip-rule="evenodd" fill="#89BE4C" d="M68.633,10.109h4.633l0.386,2.513h0.154
		c0.798-0.808,1.647-1.509,2.548-2.101c0.901-0.586,1.982-0.884,3.243-0.884c1.364,0,2.464,0.285,3.301,0.848
		c0.837,0.562,1.5,1.368,1.988,2.412c0.85-0.891,1.744-1.652,2.684-2.294c0.939-0.646,2.053-0.966,3.339-0.966
		c2.06,0,3.572,0.704,4.537,2.102c0.965,1.403,1.448,3.321,1.448,5.756v12.097h-5.675v-11.35c0-1.414-0.187-2.383-0.56-2.91
		c-0.374-0.523-0.972-0.785-1.795-0.785c-0.953,0-2.046,0.632-3.282,1.889v13.156h-5.676v-11.35c0-1.414-0.187-2.383-0.56-2.91
		c-0.374-0.523-0.972-0.785-1.795-0.785c-0.978,0-2.059,0.632-3.243,1.889v13.156h-5.675V10.109"/>
	<path fill-rule="evenodd" clip-rule="evenodd" fill="#89BE4C" d="M112.956,17.849c0-1.125-0.245-2.042-0.733-2.752
		c-0.489-0.704-1.31-1.057-2.471-1.057c-0.901,0-1.693,0.308-2.375,0.919c-0.679,0.619-1.126,1.581-1.332,2.89H112.956z
		 M100.604,19.849c0-1.571,0.254-2.988,0.769-4.258c0.518-1.27,1.19-2.343,2.027-3.224c0.836-0.874,1.795-1.548,2.877-2.02
		c1.084-0.471,2.2-0.71,3.361-0.71c1.361,0,2.552,0.239,3.571,0.71c1.014,0.472,1.866,1.123,2.548,1.964
		c0.68,0.838,1.188,1.823,1.525,2.965c0.332,1.14,0.499,2.376,0.499,3.708c0,0.524-0.022,1.002-0.074,1.438
		c-0.055,0.432-0.106,0.766-0.154,0.998h-11.467c0.254,1.495,0.827,2.575,1.715,3.243c0.888,0.667,1.976,0.998,3.263,0.998
		c1.363,0,2.744-0.429,4.131-1.296l1.895,3.498c-0.98,0.681-2.064,1.218-3.266,1.607c-1.196,0.393-2.371,0.589-3.532,0.589
		c-1.364,0-2.638-0.229-3.822-0.684c-1.185-0.462-2.214-1.126-3.089-2.007c-0.875-0.874-1.557-1.943-2.043-3.197
		C100.846,22.915,100.604,21.476,100.604,19.849z"/>
	<path fill-rule="evenodd" clip-rule="evenodd" fill="#4077B6" d="M129.018,24.172c0.9,0,1.75-0.111,2.548-0.334
		s1.486-0.608,2.065-1.158s1.036-1.31,1.371-2.281c0.334-0.966,0.502-2.196,0.502-3.688c0-1.495-0.168-2.713-0.502-3.652
		c-0.335-0.942-0.792-1.676-1.371-2.202c-0.579-0.521-1.268-0.884-2.065-1.08c-0.798-0.193-1.647-0.291-2.548-0.291h-0.387v14.688
		H129.018z M121.99,4.064h7.413c1.905,0,3.648,0.235,5.231,0.703c1.583,0.475,2.941,1.221,4.073,2.242s2.015,2.327,2.645,3.924
		c0.631,1.601,0.946,3.524,0.946,5.776c0,2.248-0.309,4.189-0.927,5.81c-0.618,1.623-1.486,2.962-2.606,4.009
		c-1.119,1.047-2.445,1.819-3.977,2.317c-1.531,0.494-3.198,0.746-5,0.746h-7.799V4.064z"/>
	<path fill-rule="evenodd" clip-rule="evenodd" fill="#4077B6" d="M151.217,19.849c0,1.702,0.29,3.054,0.869,4.045
		c0.579,0.998,1.461,1.492,2.645,1.492c1.158,0,2.033-0.494,2.625-1.492c0.592-0.991,0.889-2.343,0.889-4.045
		s-0.297-3.047-0.889-4.042c-0.592-0.998-1.467-1.492-2.625-1.492c-1.184,0-2.065,0.494-2.645,1.492
		C151.507,16.802,151.217,18.146,151.217,19.849z M145.387,19.849c0-1.623,0.258-3.069,0.773-4.336
		c0.514-1.271,1.203-2.341,2.064-3.201c0.863-0.864,1.859-1.528,2.992-1.986c1.133-0.455,2.305-0.688,3.514-0.688
		c1.21,0,2.375,0.232,3.494,0.688c1.119,0.458,2.107,1.122,2.973,1.986c0.862,0.86,1.548,1.931,2.066,3.201
		c0.514,1.267,0.771,2.713,0.771,4.336c0,1.627-0.258,3.07-0.771,4.343c-0.519,1.27-1.204,2.337-2.066,3.201
		c-0.865,0.86-1.854,1.521-2.973,1.983c-1.119,0.454-2.284,0.684-3.494,0.684c-1.209,0-2.381-0.229-3.514-0.684
		c-1.133-0.462-2.129-1.123-2.992-1.983c-0.861-0.864-1.551-1.932-2.064-3.201C145.645,22.919,145.387,21.476,145.387,19.849z"/>
	<path fill-rule="evenodd" clip-rule="evenodd" fill="#4077B6" d="M172.645,19.849c0,1.702,0.29,3.054,0.869,4.045
		c0.579,0.998,1.461,1.492,2.645,1.492c1.158,0,2.033-0.494,2.625-1.492c0.593-0.991,0.889-2.343,0.889-4.045
		s-0.296-3.047-0.889-4.042c-0.592-0.998-1.467-1.492-2.625-1.492c-1.184,0-2.065,0.494-2.645,1.492
		C172.935,16.802,172.645,18.146,172.645,19.849z M166.814,19.849c0-1.623,0.258-3.069,0.773-4.336
		c0.514-1.271,1.203-2.341,2.064-3.201c0.863-0.864,1.86-1.528,2.992-1.986c1.133-0.455,2.305-0.688,3.514-0.688
		c1.21,0,2.375,0.232,3.494,0.688c1.119,0.458,2.111,1.122,2.973,1.986c0.863,0.86,1.551,1.931,2.066,3.201
		c0.514,1.267,0.771,2.713,0.771,4.336c0,1.627-0.258,3.07-0.771,4.343c-0.516,1.27-1.203,2.337-2.066,3.201
		c-0.861,0.86-1.854,1.521-2.973,1.983c-1.119,0.454-2.284,0.684-3.494,0.684c-1.209,0-2.381-0.229-3.514-0.684
		c-1.132-0.462-2.129-1.123-2.992-1.983c-0.861-0.864-1.551-1.932-2.064-3.201C167.072,22.919,166.814,21.476,166.814,19.849z"/>
	<path fill-rule="evenodd" clip-rule="evenodd" fill="#4077B6" d="M189.363,10.109h4.633l0.386,3.416h0.154
		c0.694-1.332,1.531-2.316,2.51-2.945c0.978-0.625,1.956-0.942,2.935-0.942c0.54,0,0.984,0.036,1.332,0.102s0.662,0.16,0.945,0.291
		l-0.927,4.988c-0.36-0.102-0.694-0.181-1.003-0.232c-0.31-0.053-0.67-0.079-1.082-0.079c-0.721,0-1.473,0.262-2.258,0.782
		c-0.785,0.527-1.436,1.456-1.95,2.788v11.314h-5.675V10.109"/>
	<path fill-rule="evenodd" clip-rule="evenodd" fill="#4077B6" d="M205.192,23.736c0.875,0.681,1.712,1.195,2.509,1.535
		c0.799,0.341,1.609,0.508,2.434,0.508c0.849,0,1.467-0.142,1.853-0.429c0.386-0.288,0.579-0.694,0.579-1.218
		c0-0.317-0.109-0.599-0.328-0.845c-0.219-0.248-0.515-0.478-0.889-0.69c-0.373-0.206-0.791-0.396-1.254-0.569
		c-0.463-0.167-0.939-0.356-1.429-0.566c-0.593-0.238-1.185-0.514-1.776-0.824c-0.592-0.314-1.133-0.7-1.621-1.159
		c-0.489-0.458-0.889-0.994-1.197-1.609c-0.309-0.616-0.463-1.329-0.463-2.141c0-0.891,0.174-1.715,0.521-2.478
		c0.348-0.76,0.842-1.397,1.486-1.925c0.643-0.521,1.415-0.933,2.316-1.233c0.9-0.301,1.904-0.455,3.012-0.455
		c1.467,0,2.754,0.255,3.86,0.77c1.106,0.507,2.071,1.076,2.896,1.708l-2.548,3.453c-0.694-0.521-1.377-0.927-2.046-1.215
		c-0.67-0.291-1.339-0.435-2.008-0.435c-1.441,0-2.162,0.514-2.162,1.534c0,0.312,0.103,0.579,0.309,0.802
		c0.206,0.227,0.482,0.429,0.83,0.609c0.348,0.187,0.746,0.363,1.197,0.53c0.45,0.173,0.92,0.347,1.408,0.533
		c0.618,0.232,1.229,0.504,1.834,0.805c0.605,0.298,1.158,0.675,1.66,1.116c0.502,0.448,0.908,0.991,1.217,1.633
		s0.463,1.407,0.463,2.298c0,0.89-0.167,1.715-0.502,2.474c-0.334,0.757-0.836,1.421-1.506,1.98
		c-0.669,0.566-1.492,1.008-2.471,1.339c-0.979,0.323-2.11,0.487-3.397,0.487c-1.261,0-2.555-0.249-3.88-0.746
		c-1.326-0.494-2.478-1.148-3.455-1.964L205.192,23.736"/>
	<polyline fill-rule="evenodd" clip-rule="evenodd" fill="#89BE4C" points="15.884,4.055 0,0 0,33.683 15.884,29.657 15.884,4.055 	
		"/>
</g>
</svg>
