<?xml version="1.0" encoding="utf-8"?>
<!-- Generator: Adobe Illustrator 16.0.0, SVG Export Plug-In . SVG Version: 6.00 Build 0)  -->
<!DOCTYPE svg PUBLIC "-//W3C//DTD SVG 1.1//EN" "http://www.w3.org/Graphics/SVG/1.1/DTD/svg11.dtd">
<svg version="1.1" id="Слой_1" xmlns="http://www.w3.org/2000/svg" xmlns:xlink="http://www.w3.org/1999/xlink" x="0px" y="0px"
	 width="125.234px" height="73.333px" viewBox="0 0 125.234 73.333" enable-background="new 0 0 125.234 73.333"
	 xml:space="preserve">
<g>
	<defs>
		<rect id="SVGID_149_" x="-740.693" y="-1912.102" width="1024" height="2949"/>
	</defs>
	<clipPath id="SVGID_2_">
		<use xlink:href="#SVGID_149_"  overflow="visible"/>
	</clipPath>
</g>
<g>
	<defs>
		<rect id="SVGID_153_" x="-740.693" y="-1912.102" width="1024" height="2949"/>
	</defs>
	<clipPath id="SVGID_4_">
		<use xlink:href="#SVGID_153_"  overflow="visible"/>
	</clipPath>
</g>
<g>
	<defs>
		<rect id="SVGID_157_" x="-740.693" y="-1912.102" width="1024" height="2949"/>
	</defs>
	<clipPath id="SVGID_6_">
		<use xlink:href="#SVGID_157_"  overflow="visible"/>
	</clipPath>
</g>
<g>
	<g>
		<polygon fill="#89BE4C" points="0,64.666 22.071,29.333 67.404,24.666 108.404,0 125.234,53.333 68.738,73.333 36.738,59.333 		
			"/>
		<polygon fill="#86AF4B" points="22.071,29.333 36.738,59.333 68.738,73.333 		"/>
		<polygon fill="#86AF4B" points="68.738,73.333 67.404,24.666 125.234,53.333 		"/>
	</g>
	<g>
		<path fill="#FFFFFF" d="M48.873,56.019l-1.337-3.961l7.173-2.421l1.337,3.961L48.873,56.019z"/>
		<path fill="#FFFFFF" d="M66.992,39.269c0.389,1.15,0.371,2.258-0.054,3.32c-0.424,1.062-1.237,2.004-2.44,2.824l0.025,0.076
			c3.229-0.656,5.273,0.286,6.13,2.825c0.583,1.727,0.357,3.315-0.676,4.767c-1.032,1.451-2.763,2.587-5.192,3.406
			c-0.998,0.338-1.947,0.578-2.847,0.721c-0.899,0.145-1.908,0.192-3.026,0.145l-1.406-4.164c0.953,0.142,1.884,0.169,2.793,0.084
			c0.909-0.086,1.719-0.249,2.43-0.488c1.101-0.372,1.851-0.797,2.25-1.275c0.4-0.479,0.487-1.048,0.265-1.709
			c-0.171-0.507-0.435-0.854-0.79-1.041s-0.848-0.251-1.479-0.193c-0.631,0.057-1.416,0.245-2.355,0.562l-1.143,0.385l-1.272-3.771
			l1.168-0.394c2.547-0.86,3.602-1.941,3.162-3.245c-0.166-0.49-0.478-0.791-0.934-0.9c-0.457-0.109-1.003-0.059-1.638,0.156
			c-1.186,0.399-2.278,1.211-3.279,2.436l-3.213-2.648c0.753-1.009,1.596-1.83,2.526-2.465c0.932-0.635,2.061-1.177,3.391-1.625
			c1.92-0.648,3.556-0.776,4.905-0.383C65.641,37.065,66.541,37.931,66.992,39.269z"/>
		<path fill="#FFFFFF" d="M84.707,39.173c1.109,3.283,1.371,5.875,0.786,7.773c-0.585,1.9-2.011,3.231-4.28,3.997
			c-2.217,0.748-4.158,0.515-5.821-0.7c-1.665-1.215-3.028-3.398-4.091-6.546c-1.113-3.302-1.381-5.907-0.801-7.819
			c0.581-1.911,2.006-3.25,4.273-4.016c2.209-0.746,4.149-0.507,5.82,0.716C82.266,33.8,83.636,35.998,84.707,39.173z
			 M76.291,42.014c0.708,2.099,1.326,3.498,1.854,4.195c0.528,0.698,1.102,0.943,1.719,0.735c0.627-0.212,0.932-0.768,0.916-1.667
			c-0.017-0.899-0.369-2.373-1.061-4.421c-0.694-2.057-1.312-3.453-1.854-4.19c-0.54-0.736-1.12-1.001-1.737-0.792
			c-0.618,0.208-0.924,0.755-0.918,1.64C75.217,38.397,75.576,39.897,76.291,42.014z"/>
		<path fill="#FFFFFF" d="M94.392,31.704c0.628,1.861,0.695,3.443,0.202,4.747c-0.494,1.304-1.516,2.216-3.064,2.738
			c-1.455,0.491-2.786,0.354-3.993-0.413c-1.206-0.767-2.112-2.047-2.718-3.841c-0.628-1.863-0.697-3.435-0.205-4.718
			c0.49-1.283,1.484-2.178,2.982-2.684c1.481-0.5,2.834-0.376,4.057,0.37C92.875,28.651,93.789,29.919,94.392,31.704z
			 M88.657,33.695c0.329,0.974,0.646,1.649,0.953,2.026c0.306,0.378,0.62,0.513,0.942,0.404c0.321-0.109,0.488-0.401,0.502-0.877
			c0.015-0.477-0.146-1.209-0.48-2.201c-0.328-0.973-0.644-1.648-0.945-2.027c-0.304-0.379-0.614-0.514-0.937-0.405
			c-0.33,0.111-0.499,0.414-0.507,0.906C88.178,32.015,88.335,32.739,88.657,33.695z M101.778,23.045l-4.032,22.036l-3.77,1.272
			l4.031-22.036L101.778,23.045z M111.003,34.327c0.626,1.854,0.688,3.434,0.191,4.737c-0.499,1.305-1.518,2.217-3.058,2.736
			c-1.456,0.491-2.787,0.354-3.993-0.413s-2.11-2.043-2.714-3.829c-0.628-1.861-0.697-3.435-0.205-4.717
			c0.49-1.283,1.485-2.177,2.983-2.683c1.48-0.5,2.833-0.377,4.056,0.369C109.486,31.275,110.4,32.542,111.003,34.327z
			 M105.269,36.32c0.328,0.973,0.646,1.648,0.953,2.026c0.306,0.377,0.62,0.511,0.942,0.402c0.363-0.123,0.531-0.455,0.504-0.998
			c-0.027-0.542-0.184-1.235-0.47-2.082s-0.582-1.494-0.888-1.941c-0.308-0.448-0.644-0.611-1.007-0.488
			c-0.33,0.111-0.499,0.413-0.507,0.906C104.788,34.639,104.945,35.363,105.269,36.32z"/>
	</g>
</g>
</svg>
