<?xml version="1.0" encoding="utf-8"?>
<!-- Generator: Adobe Illustrator 16.0.0, SVG Export Plug-In . SVG Version: 6.00 Build 0)  -->
<!DOCTYPE svg PUBLIC "-//W3C//DTD SVG 1.1//EN" "http://www.w3.org/Graphics/SVG/1.1/DTD/svg11.dtd">
<svg version="1.1" xmlns="http://www.w3.org/2000/svg" xmlns:xlink="http://www.w3.org/1999/xlink" x="0px" y="0px"
	 width="89.643px" height="188.929px" viewBox="0 0 89.643 188.929" enable-background="new 0 0 89.643 188.929"
	 xml:space="preserve">
<g id="Слой_1">
</g>
<g id="Слой_2">
	<g>
		<defs>
			<path id="SVGID_13_" d="M1.429,187.5h86.786V1.429H1.429V187.5z M0,0h89.643v188.929H0V0z"/>
		</defs>
		<clipPath id="SVGID_2_">
			<use xlink:href="#SVGID_13_"  overflow="visible"/>
		</clipPath>
		<rect x="-5" y="-5" clip-path="url(#SVGID_2_)" fill="#4077B6" width="99.643" height="198.929"/>
	</g>
	<rect x="-122" y="-889.519" fill-rule="evenodd" clip-rule="evenodd" fill="none" width="1024" height="2949"/>
	<g>
		<defs>
			<path id="SVGID_15_" d="M17.588,100.749h54.467V39.765c0-11.987-12.727-22.503-27.233-22.503S17.588,27.777,17.588,39.765
				V100.749z M73.482,102.177h-57.32V39.765c0-12.749,13.393-23.932,28.659-23.932c15.269,0,28.661,11.183,28.661,23.932V102.177z"
				/>
		</defs>
		<clipPath id="SVGID_4_">
			<use xlink:href="#SVGID_15_"  overflow="visible"/>
		</clipPath>
		<rect x="11.162" y="10.833" clip-path="url(#SVGID_4_)" fill="#4077B6" width="67.32" height="96.344"/>
	</g>
	<rect x="-122" y="-889.519" fill-rule="evenodd" clip-rule="evenodd" fill="none" width="1024" height="2949"/>
	<g>
		<defs>
			<path id="SVGID_17_" d="M72.768,112.499c-2.238,0-4.062,1.822-4.062,4.062s1.824,4.062,4.062,4.062
				c2.24,0,4.062-1.822,4.062-4.062S75.008,112.499,72.768,112.499z M72.768,122.053c-3.027,0-5.49-2.463-5.49-5.491
				s2.463-5.491,5.49-5.491c3.028,0,5.491,2.463,5.491,5.491S75.796,122.053,72.768,122.053z"/>
		</defs>
		<clipPath id="SVGID_6_">
			<use xlink:href="#SVGID_17_"  overflow="visible"/>
		</clipPath>
		<rect x="62.277" y="106.07" clip-path="url(#SVGID_6_)" fill="#4077B6" width="20.981" height="20.982"/>
	</g>
	<rect x="-122" y="-889.519" fill-rule="evenodd" clip-rule="evenodd" fill="none" width="1024" height="2949"/>
	<g>
		<defs>
			<polyline id="SVGID_19_" points="33.393,99.018 19.643,99.018 19.643,74.91 21.071,74.91 21.071,97.589 33.393,97.589 
				33.393,99.018 			"/>
		</defs>
		<clipPath id="SVGID_8_">
			<use xlink:href="#SVGID_19_"  overflow="visible"/>
		</clipPath>
		<rect x="14.643" y="69.91" clip-path="url(#SVGID_8_)" fill="#4077B6" width="23.75" height="34.107"/>
	</g>
	<rect x="-122" y="-889.519" fill-rule="evenodd" clip-rule="evenodd" fill="none" width="1024" height="2949"/>
	<g>
		<defs>
			<path id="SVGID_21_" d="M67.52,37.787c-3.068-12.615-15.885-15.753-16.016-15.783l0.324-1.391
				c0.138,0.031,13.799,3.351,17.08,16.837L67.52,37.787"/>
		</defs>
		<clipPath id="SVGID_10_">
			<use xlink:href="#SVGID_21_"  overflow="visible"/>
		</clipPath>
		<rect x="46.504" y="15.613" clip-path="url(#SVGID_10_)" fill="#4077B6" width="27.404" height="27.174"/>
	</g>
	<rect x="-122" y="-889.519" fill-rule="evenodd" clip-rule="evenodd" fill="none" width="1024" height="2949"/>
	<polyline fill-rule="evenodd" clip-rule="evenodd" fill="#4077B6" points="56.071,185 3.929,185 3.929,4.643 5.357,4.643 
		5.357,183.571 56.071,183.571 56.071,185 	"/>
	<rect x="-122" y="-889.519" fill-rule="evenodd" clip-rule="evenodd" fill="none" width="1024" height="2949"/>
	<g>
		<defs>
			<polyline id="SVGID_23_" points="85.476,35.357 84.047,35.357 84.047,5.357 73.602,5.357 73.602,3.929 85.476,3.929 
				85.476,35.357 			"/>
		</defs>
		<clipPath id="SVGID_12_">
			<use xlink:href="#SVGID_23_"  overflow="visible"/>
		</clipPath>
		<rect x="68.602" y="-1.071" clip-path="url(#SVGID_12_)" fill="#4077B6" width="21.874" height="41.429"/>
	</g>
	<rect x="-122" y="-889.519" fill-rule="evenodd" clip-rule="evenodd" fill="none" width="1024" height="2949"/>
	<g>
		<defs>
			<rect id="SVGID_25_" x="44.107" y="21.309" width="1.428" height="76.994"/>
		</defs>
		<clipPath id="SVGID_14_">
			<use xlink:href="#SVGID_25_"  overflow="visible"/>
		</clipPath>
		<rect x="39.107" y="16.309" clip-path="url(#SVGID_14_)" fill="#4077B6" width="11.428" height="86.994"/>
	</g>
	<rect x="-122" y="-889.519" fill-rule="evenodd" clip-rule="evenodd" fill="none" width="1024" height="2949"/>
	<g>
		<defs>
			<rect id="SVGID_27_" x="20.357" y="48.453" width="19.404" height="1.429"/>
		</defs>
		<clipPath id="SVGID_16_">
			<use xlink:href="#SVGID_27_"  overflow="visible"/>
		</clipPath>
		<rect x="15.357" y="43.453" clip-path="url(#SVGID_16_)" fill="#4077B6" width="29.404" height="11.429"/>
	</g>
	<rect x="-122" y="-889.519" fill-rule="evenodd" clip-rule="evenodd" fill="none" width="1024" height="2949"/>
	<g>
		<defs>
			<rect id="SVGID_29_" x="50.014" y="48.453" width="18.646" height="1.429"/>
		</defs>
		<clipPath id="SVGID_18_">
			<use xlink:href="#SVGID_29_"  overflow="visible"/>
		</clipPath>
		<rect x="45.014" y="43.453" clip-path="url(#SVGID_18_)" fill="#4077B6" width="28.646" height="11.429"/>
	</g>
	<rect x="-122" y="-889.519" fill-rule="evenodd" clip-rule="evenodd" fill="none" width="1024" height="2949"/>
	<g>
		<defs>
			<path id="SVGID_31_" d="M69.672,118.15c-0.059-0.2-0.555-1.99,0.304-3.351c0.447-0.707,1.19-1.16,2.146-1.31l0.222,1.411
				c-0.552,0.086-0.93,0.302-1.155,0.657c-0.44,0.69-0.254,1.812-0.145,2.188L69.672,118.15"/>
		</defs>
		<clipPath id="SVGID_20_">
			<use xlink:href="#SVGID_31_"  overflow="visible"/>
		</clipPath>
		<rect x="64.477" y="108.49" clip-path="url(#SVGID_20_)" fill="#4077B6" width="12.866" height="14.66"/>
	</g>
	<rect x="-122" y="-889.519" fill-rule="evenodd" clip-rule="evenodd" fill="none" width="1024" height="2949"/>
	<rect x="-122" y="-889.519" fill-rule="evenodd" clip-rule="evenodd" fill="none" width="1024" height="2949"/>
	<rect x="-122" y="-889.519" fill-rule="evenodd" clip-rule="evenodd" fill="none" width="1024" height="2949"/>
	<rect x="-122" y="-889.519" fill-rule="evenodd" clip-rule="evenodd" fill="none" width="1024" height="2949"/>
	<rect x="-122" y="-889.519" fill-rule="evenodd" clip-rule="evenodd" fill="none" width="1024" height="2949"/>
</g>
</svg>
