<?xml version="1.0" encoding="utf-8"?>
<!-- Generator: Adobe Illustrator 16.0.0, SVG Export Plug-In . SVG Version: 6.00 Build 0)  -->
<!DOCTYPE svg PUBLIC "-//W3C//DTD SVG 1.1//EN" "http://www.w3.org/Graphics/SVG/1.1/DTD/svg11.dtd">
<svg version="1.1" xmlns="http://www.w3.org/2000/svg" xmlns:xlink="http://www.w3.org/1999/xlink" x="0px" y="0px"
	 width="90.203px" height="189.924px" viewBox="0 0 90.203 189.924" enable-background="new 0 0 90.203 189.924"
	 xml:space="preserve">
<g id="Слой_1">
</g>
<g id="Слой_2">
	<rect x="-602.898" y="-889.378" fill-rule="evenodd" clip-rule="evenodd" fill="none" width="1024" height="2949"/>
	<rect x="-602.898" y="-889.378" fill-rule="evenodd" clip-rule="evenodd" fill="none" width="1024" height="2949"/>
	<rect x="-602.898" y="-889.378" fill-rule="evenodd" clip-rule="evenodd" fill="none" width="1024" height="2949"/>
	<rect x="-602.898" y="-889.378" fill-rule="evenodd" clip-rule="evenodd" fill="none" width="1024" height="2949"/>
	<rect x="-602.898" y="-889.378" fill-rule="evenodd" clip-rule="evenodd" fill="none" width="1024" height="2949"/>
	<rect x="-602.898" y="-889.378" fill-rule="evenodd" clip-rule="evenodd" fill="none" width="1024" height="2949"/>
	<rect x="-602.898" y="-889.378" fill-rule="evenodd" clip-rule="evenodd" fill="none" width="1024" height="2949"/>
	<rect x="-602.898" y="-889.378" fill-rule="evenodd" clip-rule="evenodd" fill="none" width="1024" height="2949"/>
	<rect x="-602.898" y="-889.378" fill-rule="evenodd" clip-rule="evenodd" fill="none" width="1024" height="2949"/>
	<rect x="-602.898" y="-889.378" fill-rule="evenodd" clip-rule="evenodd" fill="none" width="1024" height="2949"/>
	<rect x="-602.898" y="-889.378" fill-rule="evenodd" clip-rule="evenodd" fill="none" width="1024" height="2949"/>
	<g>
		<defs>
			<path id="SVGID_33_" d="M1.438,188.485h87.328V1.436H1.438V188.485z M0,0h90.203v189.924H0V0z"/>
		</defs>
		<clipPath id="SVGID_2_">
			<use xlink:href="#SVGID_33_"  overflow="visible"/>
		</clipPath>
		<rect x="-5" y="-5" clip-path="url(#SVGID_2_)" fill="#4077B6" width="100.203" height="199.924"/>
	</g>
	<rect x="-602.898" y="-889.378" fill-rule="evenodd" clip-rule="evenodd" fill="none" width="1024" height="2949"/>
	<g>
		<defs>
			<path id="SVGID_35_" d="M73.312,91.37c-2.254,0-4.088,1.831-4.088,4.083s1.834,4.084,4.088,4.084s4.088-1.832,4.088-4.084
				S75.566,91.37,73.312,91.37z M73.312,100.974c-3.046,0-5.525-2.477-5.525-5.521c0-3.043,2.479-5.519,5.525-5.519
				s5.525,2.476,5.525,5.519C78.838,98.497,76.358,100.974,73.312,100.974z"/>
		</defs>
		<clipPath id="SVGID_4_">
			<use xlink:href="#SVGID_35_"  overflow="visible"/>
		</clipPath>
		<rect x="62.787" y="84.935" clip-path="url(#SVGID_4_)" fill="#4077B6" width="21.051" height="21.039"/>
	</g>
	<rect x="-602.898" y="-889.378" fill-rule="evenodd" clip-rule="evenodd" fill="none" width="1024" height="2949"/>
	<g>
		<defs>
			<polyline id="SVGID_37_" points="56.422,185.973 3.953,185.973 3.953,50.145 5.391,50.145 5.391,184.536 56.422,184.536 
				56.422,185.973 			"/>
		</defs>
		<clipPath id="SVGID_6_">
			<use xlink:href="#SVGID_37_"  overflow="visible"/>
		</clipPath>
		<rect x="-1.047" y="45.145" clip-path="url(#SVGID_6_)" fill="#4077B6" width="62.469" height="145.828"/>
	</g>
	<rect x="-602.898" y="-889.378" fill-rule="evenodd" clip-rule="evenodd" fill="none" width="1024" height="2949"/>
	<g>
		<defs>
			<polyline id="SVGID_39_" points="86.012,35.544 84.574,35.544 84.574,5.386 74.062,5.386 74.062,3.949 86.012,3.949 
				86.012,35.544 			"/>
		</defs>
		<clipPath id="SVGID_8_">
			<use xlink:href="#SVGID_39_"  overflow="visible"/>
		</clipPath>
		<rect x="69.062" y="-1.051" clip-path="url(#SVGID_8_)" fill="#4077B6" width="21.949" height="41.595"/>
	</g>
	<rect x="-602.898" y="-889.378" fill-rule="evenodd" clip-rule="evenodd" fill="none" width="1024" height="2949"/>
	<rect x="72.594" y="104.71" fill-rule="evenodd" clip-rule="evenodd" fill="#4077B6" width="1.438" height="2.756"/>
</g>
</svg>
