<?xml version="1.0" encoding="utf-8"?>
<!-- Generator: Adobe Illustrator 16.0.0, SVG Export Plug-In . SVG Version: 6.00 Build 0)  -->
<!DOCTYPE svg PUBLIC "-//W3C//DTD SVG 1.1//EN" "http://www.w3.org/Graphics/SVG/1.1/DTD/svg11.dtd">
<svg version="1.1" id="Слой_1" xmlns="http://www.w3.org/2000/svg" xmlns:xlink="http://www.w3.org/1999/xlink" x="0px" y="0px"
	 width="149px" height="166px" viewBox="0 0 149 166" enable-background="new 0 0 149 166" xml:space="preserve">
<g>
	<defs>
		<rect id="SVGID_25_" x="-117.174" y="-1824.23" width="1024" height="2949"/>
	</defs>
	<clipPath id="SVGID_2_">
		<use xlink:href="#SVGID_25_"  overflow="visible"/>
	</clipPath>
</g>
<g>
	<defs>
		<rect id="SVGID_29_" x="-117.174" y="-1824.23" width="1024" height="2949"/>
	</defs>
	<clipPath id="SVGID_4_">
		<use xlink:href="#SVGID_29_"  overflow="visible"/>
	</clipPath>
</g>
<g>
	<defs>
		<rect id="SVGID_33_" x="-117.174" y="-1824.23" width="1024" height="2949"/>
	</defs>
	<clipPath id="SVGID_6_">
		<use xlink:href="#SVGID_33_"  overflow="visible"/>
	</clipPath>
</g>
<g>
	<defs>
		<rect id="SVGID_37_" x="-117.174" y="-1824.23" width="1024" height="2949"/>
	</defs>
	<clipPath id="SVGID_8_">
		<use xlink:href="#SVGID_37_"  overflow="visible"/>
	</clipPath>
</g>
<g>
	<defs>
		<rect id="SVGID_41_" x="-117.174" y="-1824.23" width="1024" height="2949"/>
	</defs>
	<clipPath id="SVGID_10_">
		<use xlink:href="#SVGID_41_"  overflow="visible"/>
	</clipPath>
</g>
<g>
	<defs>
		<rect id="SVGID_45_" x="-117.174" y="-1824.23" width="1024" height="2949"/>
	</defs>
	<clipPath id="SVGID_12_">
		<use xlink:href="#SVGID_45_"  overflow="visible"/>
	</clipPath>
</g>
<g>
	<defs>
		<rect id="SVGID_49_" x="-117.174" y="-1824.23" width="1024" height="2949"/>
	</defs>
	<clipPath id="SVGID_14_">
		<use xlink:href="#SVGID_49_"  overflow="visible"/>
	</clipPath>
</g>
<g>
	<defs>
		<rect id="SVGID_53_" x="-117.174" y="-1824.23" width="1024" height="2949"/>
	</defs>
	<clipPath id="SVGID_16_">
		<use xlink:href="#SVGID_53_"  overflow="visible"/>
	</clipPath>
</g>
<g>
	<defs>
		<rect id="SVGID_57_" x="-117.174" y="-1824.23" width="1024" height="2949"/>
	</defs>
	<clipPath id="SVGID_18_">
		<use xlink:href="#SVGID_57_"  overflow="visible"/>
	</clipPath>
</g>
<g>
	<defs>
		<rect id="SVGID_61_" x="-117.174" y="-1824.23" width="1024" height="2949"/>
	</defs>
	<clipPath id="SVGID_20_">
		<use xlink:href="#SVGID_61_"  overflow="visible"/>
	</clipPath>
</g>
<g>
	<defs>
		<rect id="SVGID_65_" x="-117.174" y="-1824.23" width="1024" height="2949"/>
	</defs>
	<clipPath id="SVGID_22_">
		<use xlink:href="#SVGID_65_"  overflow="visible"/>
	</clipPath>
</g>
<g>
	<defs>
		<rect id="SVGID_69_" x="-117.174" y="-1824.23" width="1024" height="2949"/>
	</defs>
	<clipPath id="SVGID_24_">
		<use xlink:href="#SVGID_69_"  overflow="visible"/>
	</clipPath>
</g>
<g>
	<defs>
		<rect id="SVGID_73_" x="-117.174" y="-1824.23" width="1024" height="2949"/>
	</defs>
	<clipPath id="SVGID_26_">
		<use xlink:href="#SVGID_73_"  overflow="visible"/>
	</clipPath>
</g>
<g>
	<defs>
		<rect id="SVGID_77_" x="-117.174" y="-1824.23" width="1024" height="2949"/>
	</defs>
	<clipPath id="SVGID_28_">
		<use xlink:href="#SVGID_77_"  overflow="visible"/>
	</clipPath>
</g>
<g>
	<defs>
		<rect id="SVGID_81_" x="-117.174" y="-1824.23" width="1024" height="2949"/>
	</defs>
	<clipPath id="SVGID_30_">
		<use xlink:href="#SVGID_81_"  overflow="visible"/>
	</clipPath>
</g>
<g>
	<defs>
		<rect id="SVGID_85_" x="-117.174" y="-1824.23" width="1024" height="2949"/>
	</defs>
	<clipPath id="SVGID_32_">
		<use xlink:href="#SVGID_85_"  overflow="visible"/>
	</clipPath>
</g>
<g>
	<defs>
		<rect id="SVGID_89_" x="-117.174" y="-1824.23" width="1024" height="2949"/>
	</defs>
	<clipPath id="SVGID_34_">
		<use xlink:href="#SVGID_89_"  overflow="visible"/>
	</clipPath>
	<g clip-path="url(#SVGID_34_)">
		<defs>
			<path id="SVGID_91_" d="M75.207,21.815c-33.885,0-61.453,27.569-61.453,61.454s27.568,61.454,61.453,61.454
				s61.453-27.569,61.453-61.454S109.092,21.815,75.207,21.815z M75.207,146.714c-34.983,0-63.443-28.461-63.443-63.444
				s28.46-63.444,63.443-63.444s63.444,28.461,63.444,63.444S110.19,146.714,75.207,146.714z"/>
		</defs>
		<clipPath id="SVGID_36_">
			<use xlink:href="#SVGID_91_"  overflow="visible"/>
		</clipPath>
		<rect x="6.764" y="14.825" clip-path="url(#SVGID_36_)" fill="#4077B6" width="136.888" height="136.889"/>
	</g>
</g>
<g>
	<defs>
		<rect id="SVGID_93_" x="-117.174" y="-1824.23" width="1024" height="2949"/>
	</defs>
	<clipPath id="SVGID_38_">
		<use xlink:href="#SVGID_93_"  overflow="visible"/>
	</clipPath>
	<g clip-path="url(#SVGID_38_)">
		<defs>
			<polyline id="SVGID_95_" points="103.819,88.245 74.212,88.245 74.212,42.218 76.202,42.218 76.202,86.255 103.819,86.255 
				103.819,88.245 			"/>
		</defs>
		<clipPath id="SVGID_40_">
			<use xlink:href="#SVGID_95_"  overflow="visible"/>
		</clipPath>
		<rect x="69.212" y="37.218" clip-path="url(#SVGID_40_)" fill="#4077B6" width="39.607" height="56.027"/>
	</g>
</g>
<g>
	<defs>
		<rect id="SVGID_97_" x="-117.174" y="-1824.23" width="1024" height="2949"/>
	</defs>
	<clipPath id="SVGID_42_">
		<use xlink:href="#SVGID_97_"  overflow="visible"/>
	</clipPath>
	<g clip-path="url(#SVGID_42_)">
		<defs>
			<path id="SVGID_99_" d="M75.207,14.271c-38.047,0-69.002,30.952-69.002,68.999s30.955,69.001,69.002,69.001s69-30.954,69-69.001
				S113.254,14.271,75.207,14.271z M75.207,154.262c-39.145,0-70.992-31.847-70.992-70.992c0-39.144,31.848-70.99,70.992-70.99
				c39.144,0,70.99,31.847,70.99,70.99C146.197,122.415,114.351,154.262,75.207,154.262z"/>
		</defs>
		<clipPath id="SVGID_44_">
			<use xlink:href="#SVGID_99_"  overflow="visible"/>
		</clipPath>
		<rect x="-0.785" y="7.279" clip-path="url(#SVGID_44_)" fill="#4077B6" width="151.982" height="151.982"/>
	</g>
</g>
<g>
	<defs>
		<rect id="SVGID_101_" x="-117.174" y="-1824.23" width="1024" height="2949"/>
	</defs>
	<clipPath id="SVGID_46_">
		<use xlink:href="#SVGID_101_"  overflow="visible"/>
	</clipPath>
	<g clip-path="url(#SVGID_46_)">
		<defs>
			<path id="SVGID_103_" d="M89.363,137.582l-0.279-1.971c0.227-0.034,22.987-3.559,34.902-28.636l1.797,0.855
				C113.395,133.905,89.602,137.55,89.363,137.582"/>
		</defs>
		<clipPath id="SVGID_48_">
			<use xlink:href="#SVGID_103_"  overflow="visible"/>
		</clipPath>
		<rect x="84.084" y="101.976" clip-path="url(#SVGID_48_)" fill="#4077B6" width="46.699" height="40.606"/>
	</g>
</g>
<g>
	<defs>
		<rect id="SVGID_105_" x="-117.174" y="-1824.23" width="1024" height="2949"/>
	</defs>
	<clipPath id="SVGID_50_">
		<use xlink:href="#SVGID_105_"  overflow="visible"/>
	</clipPath>
	<g clip-path="url(#SVGID_50_)">
		<defs>
			<path id="SVGID_107_" d="M78.483,87.25c0-1.809-1.467-3.275-3.276-3.275c-1.809,0-3.275,1.467-3.275,3.275
				c0,1.81,1.467,3.276,3.275,3.276C77.017,90.526,78.483,89.06,78.483,87.25"/>
		</defs>
		<clipPath id="SVGID_52_">
			<use xlink:href="#SVGID_107_"  overflow="visible"/>
		</clipPath>
		<rect x="66.932" y="78.975" clip-path="url(#SVGID_52_)" fill="#FFFFFF" width="16.552" height="16.552"/>
	</g>
</g>
<g>
	<defs>
		<rect id="SVGID_109_" x="-117.174" y="-1824.23" width="1024" height="2949"/>
	</defs>
	<clipPath id="SVGID_54_">
		<use xlink:href="#SVGID_109_"  overflow="visible"/>
	</clipPath>
	<g clip-path="url(#SVGID_54_)">
		<defs>
			<path id="SVGID_111_" d="M75.207,84.97c-1.258,0-2.281,1.022-2.281,2.28s1.023,2.279,2.281,2.279
				c1.256,0,2.281-1.021,2.281-2.279S76.463,84.97,75.207,84.97z M75.207,91.521c-2.356,0-4.271-1.916-4.271-4.271
				c0-2.354,1.915-4.27,4.271-4.27c2.355,0,4.27,1.915,4.27,4.27C79.477,89.605,77.562,91.521,75.207,91.521z"/>
		</defs>
		<clipPath id="SVGID_56_">
			<use xlink:href="#SVGID_111_"  overflow="visible"/>
		</clipPath>
		<rect x="65.936" y="77.98" clip-path="url(#SVGID_56_)" fill="#4077B6" width="18.541" height="18.541"/>
	</g>
</g>
<g>
	<defs>
		<rect id="SVGID_113_" x="-117.174" y="-1824.23" width="1024" height="2949"/>
	</defs>
	<clipPath id="SVGID_58_">
		<use xlink:href="#SVGID_113_"  overflow="visible"/>
	</clipPath>
</g>
<g>
	<defs>
		<rect id="SVGID_117_" x="-117.174" y="-1824.23" width="1024" height="2949"/>
	</defs>
	<clipPath id="SVGID_60_">
		<use xlink:href="#SVGID_117_"  overflow="visible"/>
	</clipPath>
</g>
<g>
	<defs>
		<rect id="SVGID_121_" x="-117.174" y="-1824.23" width="1024" height="2949"/>
	</defs>
	<clipPath id="SVGID_62_">
		<use xlink:href="#SVGID_121_"  overflow="visible"/>
	</clipPath>
</g>
<g>
	<defs>
		<rect id="SVGID_125_" x="-117.174" y="-1824.23" width="1024" height="2949"/>
	</defs>
	<clipPath id="SVGID_64_">
		<use xlink:href="#SVGID_125_"  overflow="visible"/>
	</clipPath>
</g>
<g>
	<defs>
		<rect id="SVGID_129_" x="-117.174" y="-1824.23" width="1024" height="2949"/>
	</defs>
	<clipPath id="SVGID_66_">
		<use xlink:href="#SVGID_129_"  overflow="visible"/>
	</clipPath>
</g>
<g>
	<defs>
		<rect id="SVGID_133_" x="-117.174" y="-1824.23" width="1024" height="2949"/>
	</defs>
	<clipPath id="SVGID_68_">
		<use xlink:href="#SVGID_133_"  overflow="visible"/>
	</clipPath>
</g>
<g>
	<defs>
		<rect id="SVGID_137_" x="-117.174" y="-1824.23" width="1024" height="2949"/>
	</defs>
	<clipPath id="SVGID_70_">
		<use xlink:href="#SVGID_137_"  overflow="visible"/>
	</clipPath>
</g>
<g>
	<defs>
		<rect id="SVGID_141_" x="-117.174" y="-1824.23" width="1024" height="2949"/>
	</defs>
	<clipPath id="SVGID_72_">
		<use xlink:href="#SVGID_141_"  overflow="visible"/>
	</clipPath>
</g>
<g>
	<defs>
		<rect id="SVGID_145_" x="-117.174" y="-1824.23" width="1024" height="2949"/>
	</defs>
	<clipPath id="SVGID_74_">
		<use xlink:href="#SVGID_145_"  overflow="visible"/>
	</clipPath>
</g>
</svg>
