<?xml version="1.0" encoding="utf-8"?>
<!-- Generator: Adobe Illustrator 16.0.0, SVG Export Plug-In . SVG Version: 6.00 Build 0)  -->
<!DOCTYPE svg PUBLIC "-//W3C//DTD SVG 1.1//EN" "http://www.w3.org/Graphics/SVG/1.1/DTD/svg11.dtd">
<svg version="1.1" id="Слой_1" xmlns="http://www.w3.org/2000/svg" xmlns:xlink="http://www.w3.org/1999/xlink" x="0px" y="0px"
	 width="179.5px" height="166px" viewBox="0 0 179.5 166" enable-background="new 0 0 179.5 166" xml:space="preserve">
<g>
	<defs>
		<rect id="SVGID_25_" x="-742.674" y="-1824.23" width="1024" height="2949"/>
	</defs>
	<clipPath id="SVGID_2_">
		<use xlink:href="#SVGID_25_"  overflow="visible"/>
	</clipPath>
</g>
<g>
	<defs>
		<rect id="SVGID_29_" x="-742.674" y="-1824.23" width="1024" height="2949"/>
	</defs>
	<clipPath id="SVGID_4_">
		<use xlink:href="#SVGID_29_"  overflow="visible"/>
	</clipPath>
</g>
<g>
	<defs>
		<rect id="SVGID_33_" x="-742.674" y="-1824.23" width="1024" height="2949"/>
	</defs>
	<clipPath id="SVGID_6_">
		<use xlink:href="#SVGID_33_"  overflow="visible"/>
	</clipPath>
</g>
<g>
	<defs>
		<rect id="SVGID_37_" x="-742.674" y="-1824.23" width="1024" height="2949"/>
	</defs>
	<clipPath id="SVGID_8_">
		<use xlink:href="#SVGID_37_"  overflow="visible"/>
	</clipPath>
</g>
<g>
	<defs>
		<rect id="SVGID_41_" x="-742.674" y="-1824.23" width="1024" height="2949"/>
	</defs>
	<clipPath id="SVGID_10_">
		<use xlink:href="#SVGID_41_"  overflow="visible"/>
	</clipPath>
</g>
<g>
	<defs>
		<rect id="SVGID_45_" x="-742.674" y="-1824.23" width="1024" height="2949"/>
	</defs>
	<clipPath id="SVGID_12_">
		<use xlink:href="#SVGID_45_"  overflow="visible"/>
	</clipPath>
</g>
<g>
	<defs>
		<rect id="SVGID_49_" x="-742.674" y="-1824.23" width="1024" height="2949"/>
	</defs>
	<clipPath id="SVGID_14_">
		<use xlink:href="#SVGID_49_"  overflow="visible"/>
	</clipPath>
</g>
<g>
	<defs>
		<rect id="SVGID_53_" x="-742.674" y="-1824.23" width="1024" height="2949"/>
	</defs>
	<clipPath id="SVGID_16_">
		<use xlink:href="#SVGID_53_"  overflow="visible"/>
	</clipPath>
</g>
<g>
	<defs>
		<rect id="SVGID_57_" x="-742.674" y="-1824.23" width="1024" height="2949"/>
	</defs>
	<clipPath id="SVGID_18_">
		<use xlink:href="#SVGID_57_"  overflow="visible"/>
	</clipPath>
</g>
<g>
	<defs>
		<rect id="SVGID_61_" x="-742.674" y="-1824.23" width="1024" height="2949"/>
	</defs>
	<clipPath id="SVGID_20_">
		<use xlink:href="#SVGID_61_"  overflow="visible"/>
	</clipPath>
</g>
<g>
	<defs>
		<rect id="SVGID_65_" x="-742.674" y="-1824.23" width="1024" height="2949"/>
	</defs>
	<clipPath id="SVGID_22_">
		<use xlink:href="#SVGID_65_"  overflow="visible"/>
	</clipPath>
</g>
<g>
	<defs>
		<rect id="SVGID_69_" x="-742.674" y="-1824.23" width="1024" height="2949"/>
	</defs>
	<clipPath id="SVGID_24_">
		<use xlink:href="#SVGID_69_"  overflow="visible"/>
	</clipPath>
</g>
<g>
	<defs>
		<rect id="SVGID_73_" x="-742.674" y="-1824.23" width="1024" height="2949"/>
	</defs>
	<clipPath id="SVGID_26_">
		<use xlink:href="#SVGID_73_"  overflow="visible"/>
	</clipPath>
</g>
<g>
	<defs>
		<rect id="SVGID_77_" x="-742.674" y="-1824.23" width="1024" height="2949"/>
	</defs>
	<clipPath id="SVGID_28_">
		<use xlink:href="#SVGID_77_"  overflow="visible"/>
	</clipPath>
</g>
<g>
	<defs>
		<rect id="SVGID_81_" x="-742.674" y="-1824.23" width="1024" height="2949"/>
	</defs>
	<clipPath id="SVGID_30_">
		<use xlink:href="#SVGID_81_"  overflow="visible"/>
	</clipPath>
</g>
<g>
	<defs>
		<rect id="SVGID_85_" x="-742.674" y="-1824.23" width="1024" height="2949"/>
	</defs>
	<clipPath id="SVGID_32_">
		<use xlink:href="#SVGID_85_"  overflow="visible"/>
	</clipPath>
</g>
<g>
	<defs>
		<rect id="SVGID_89_" x="-742.674" y="-1824.23" width="1024" height="2949"/>
	</defs>
	<clipPath id="SVGID_34_">
		<use xlink:href="#SVGID_89_"  overflow="visible"/>
	</clipPath>
</g>
<g>
	<defs>
		<rect id="SVGID_93_" x="-742.674" y="-1824.23" width="1024" height="2949"/>
	</defs>
	<clipPath id="SVGID_36_">
		<use xlink:href="#SVGID_93_"  overflow="visible"/>
	</clipPath>
</g>
<g>
	<defs>
		<rect id="SVGID_97_" x="-742.674" y="-1824.23" width="1024" height="2949"/>
	</defs>
	<clipPath id="SVGID_38_">
		<use xlink:href="#SVGID_97_"  overflow="visible"/>
	</clipPath>
</g>
<g>
	<defs>
		<rect id="SVGID_101_" x="-742.674" y="-1824.23" width="1024" height="2949"/>
	</defs>
	<clipPath id="SVGID_40_">
		<use xlink:href="#SVGID_101_"  overflow="visible"/>
	</clipPath>
</g>
<g>
	<defs>
		<rect id="SVGID_105_" x="-742.674" y="-1824.23" width="1024" height="2949"/>
	</defs>
	<clipPath id="SVGID_42_">
		<use xlink:href="#SVGID_105_"  overflow="visible"/>
	</clipPath>
</g>
<g>
	<defs>
		<rect id="SVGID_109_" x="-742.674" y="-1824.23" width="1024" height="2949"/>
	</defs>
	<clipPath id="SVGID_44_">
		<use xlink:href="#SVGID_109_"  overflow="visible"/>
	</clipPath>
</g>
<g>
	<defs>
		<rect id="SVGID_113_" x="-742.674" y="-1824.23" width="1024" height="2949"/>
	</defs>
	<clipPath id="SVGID_46_">
		<use xlink:href="#SVGID_113_"  overflow="visible"/>
	</clipPath>
	<g clip-path="url(#SVGID_46_)">
		<defs>
			<path id="SVGID_115_" d="M20.974,117.143c0.087-34.285,25.771-54.746,68.756-54.746c42.98,0,68.669,20.461,68.755,54.746h1.953
				c-0.086-35.508-26.501-56.701-70.708-56.701s-70.626,21.193-70.711,56.701H20.974"/>
		</defs>
		<clipPath id="SVGID_48_">
			<use xlink:href="#SVGID_115_"  overflow="visible"/>
		</clipPath>
		<rect x="14.019" y="55.441" clip-path="url(#SVGID_48_)" fill="#4077B6" width="151.419" height="66.701"/>
	</g>
</g>
<g>
	<defs>
		<rect id="SVGID_117_" x="-742.674" y="-1824.23" width="1024" height="2949"/>
	</defs>
	<clipPath id="SVGID_50_">
		<use xlink:href="#SVGID_117_"  overflow="visible"/>
	</clipPath>
	<g clip-path="url(#SVGID_50_)">
		<defs>
			<path id="SVGID_119_" d="M16.312,135.523h147.557v-10.367H16.312V135.523z M14.296,123.139h151.591v14.402H14.296V123.139z"/>
		</defs>
		<clipPath id="SVGID_52_">
			<use xlink:href="#SVGID_119_"  overflow="visible"/>
		</clipPath>
		<rect x="9.296" y="118.139" clip-path="url(#SVGID_52_)" fill="#4077B6" width="161.591" height="24.402"/>
	</g>
</g>
<g>
	<defs>
		<rect id="SVGID_121_" x="-742.674" y="-1824.23" width="1024" height="2949"/>
	</defs>
	<clipPath id="SVGID_54_">
		<use xlink:href="#SVGID_121_"  overflow="visible"/>
	</clipPath>
	<g clip-path="url(#SVGID_54_)">
		<defs>
			<rect id="SVGID_123_" x="19.019" y="116.134" width="100.565" height="2.018"/>
		</defs>
		<clipPath id="SVGID_56_">
			<use xlink:href="#SVGID_123_"  overflow="visible"/>
		</clipPath>
		<rect x="14.019" y="111.134" clip-path="url(#SVGID_56_)" fill="#4077B6" width="110.565" height="12.018"/>
	</g>
</g>
<g>
	<defs>
		<rect id="SVGID_125_" x="-742.674" y="-1824.23" width="1024" height="2949"/>
	</defs>
	<clipPath id="SVGID_58_">
		<use xlink:href="#SVGID_125_"  overflow="visible"/>
	</clipPath>
	<g clip-path="url(#SVGID_58_)">
		<defs>
			<path id="SVGID_127_" d="M90.233,149.19H9.732v-5.559l0.576-0.272c4.011-1.9,3.987-6.765,3.987-6.812l2.017-0.028
				c0.002,0.242,0.028,5.762-4.563,8.364v2.29h78.484V149.19"/>
		</defs>
		<clipPath id="SVGID_60_">
			<use xlink:href="#SVGID_127_"  overflow="visible"/>
		</clipPath>
		<rect x="4.732" y="131.519" clip-path="url(#SVGID_60_)" fill="#4077B6" width="90.501" height="22.672"/>
	</g>
</g>
<g>
	<defs>
		<rect id="SVGID_129_" x="-742.674" y="-1824.23" width="1024" height="2949"/>
	</defs>
	<clipPath id="SVGID_62_">
		<use xlink:href="#SVGID_129_"  overflow="visible"/>
	</clipPath>
	<g clip-path="url(#SVGID_62_)">
		<defs>
			<path id="SVGID_131_" d="M170.735,149.19h-45.611v-2.018h43.594v-2.29c-4.59-2.603-4.565-8.122-4.562-8.366l2.018,0.028
				c-0.002,0.199,0,4.929,3.984,6.814l0.577,0.272V149.19"/>
		</defs>
		<clipPath id="SVGID_64_">
			<use xlink:href="#SVGID_131_"  overflow="visible"/>
		</clipPath>
		<rect x="120.124" y="131.517" clip-path="url(#SVGID_64_)" fill="#4077B6" width="55.611" height="22.674"/>
	</g>
</g>
<g>
	<defs>
		<rect id="SVGID_133_" x="-742.674" y="-1824.23" width="1024" height="2949"/>
	</defs>
	<clipPath id="SVGID_66_">
		<use xlink:href="#SVGID_133_"  overflow="visible"/>
	</clipPath>
	<g clip-path="url(#SVGID_66_)">
		<defs>
			<path id="SVGID_135_" d="M73.436,59.608l-1.232-4.469l0.914-0.299c0.22-0.075,5.478-1.764,14.655-1.764v2.018
				c-6.67,0-11.244,0.94-13.102,1.406l0.71,2.57L73.436,59.608"/>
		</defs>
		<clipPath id="SVGID_68_">
			<use xlink:href="#SVGID_135_"  overflow="visible"/>
		</clipPath>
		<rect x="67.203" y="48.077" clip-path="url(#SVGID_68_)" fill="#4077B6" width="25.569" height="16.531"/>
	</g>
</g>
<g>
	<defs>
		<rect id="SVGID_137_" x="-742.674" y="-1824.23" width="1024" height="2949"/>
	</defs>
	<clipPath id="SVGID_70_">
		<use xlink:href="#SVGID_137_"  overflow="visible"/>
	</clipPath>
	<g clip-path="url(#SVGID_70_)">
		<defs>
			<path id="SVGID_139_" d="M106.524,59.608l-1.942-0.537l0.708-2.57c-1.856-0.466-6.43-1.406-13.102-1.406v-2.018
				c9.178,0,14.438,1.688,14.657,1.764l0.914,0.299L106.524,59.608"/>
		</defs>
		<clipPath id="SVGID_72_">
			<use xlink:href="#SVGID_139_"  overflow="visible"/>
		</clipPath>
		<rect x="87.188" y="48.077" clip-path="url(#SVGID_72_)" fill="#4077B6" width="25.571" height="16.531"/>
	</g>
</g>
<g>
	<defs>
		<rect id="SVGID_141_" x="-742.674" y="-1824.23" width="1024" height="2949"/>
	</defs>
	<clipPath id="SVGID_74_">
		<use xlink:href="#SVGID_141_"  overflow="visible"/>
	</clipPath>
	<g clip-path="url(#SVGID_74_)">
		<defs>
			<polyline id="SVGID_143_" points="91.101,51.332 89.084,51.298 89.225,43.314 91.242,43.349 91.101,51.332 			"/>
		</defs>
		<clipPath id="SVGID_76_">
			<use xlink:href="#SVGID_143_"  overflow="visible"/>
		</clipPath>
		<rect x="84.084" y="38.314" clip-path="url(#SVGID_76_)" fill="#4077B6" width="12.158" height="18.018"/>
	</g>
</g>
<g>
	<defs>
		<rect id="SVGID_145_" x="-742.674" y="-1824.23" width="1024" height="2949"/>
	</defs>
	<clipPath id="SVGID_78_">
		<use xlink:href="#SVGID_145_"  overflow="visible"/>
	</clipPath>
	<g clip-path="url(#SVGID_78_)">
		<defs>
			<path id="SVGID_147_" d="M90.233,33.576c-8.156,0-13.166,2.494-13.166,4.281s5.01,4.283,13.166,4.283
				c8.159,0,13.168-2.496,13.168-4.283S98.393,33.576,90.233,33.576z M90.233,44.158c-7.359,0-15.184-2.209-15.184-6.301
				c0-4.094,7.824-6.299,15.184-6.299c7.362,0,15.184,2.205,15.184,6.299C105.417,41.949,97.596,44.158,90.233,44.158z"/>
		</defs>
		<clipPath id="SVGID_80_">
			<use xlink:href="#SVGID_147_"  overflow="visible"/>
		</clipPath>
		<rect x="70.05" y="26.559" clip-path="url(#SVGID_80_)" fill="#4077B6" width="40.367" height="22.6"/>
	</g>
</g>
</svg>
