<?xml version="1.0" encoding="utf-8"?>
<!-- Generator: Adobe Illustrator 16.0.0, SVG Export Plug-In . SVG Version: 6.00 Build 0)  -->
<!DOCTYPE svg PUBLIC "-//W3C//DTD SVG 1.1//EN" "http://www.w3.org/Graphics/SVG/1.1/DTD/svg11.dtd">
<svg version="1.1" id="Слой_1" xmlns="http://www.w3.org/2000/svg" xmlns:xlink="http://www.w3.org/1999/xlink" x="0px" y="0px"
	 width="107.334px" height="103.176px" viewBox="0 0 107.334 103.176" enable-background="new 0 0 107.334 103.176"
	 xml:space="preserve">
<path fill="#E8033C" d="M34.563,91.136c9.692,0,17.487,4.403,19.33,5.535c5.104-3.674,10.865-5.535,17.131-5.535
	c8.811,0,16.054,3.64,18.684,5.149V41.742c-5.475-3.179-11.303-4.79-17.331-4.79c-10.458,0-18.007,4.916-18.083,4.965l-0.354,0.235
	l-0.365-0.217c-5.57-3.307-11.512-4.983-17.66-4.983c-9.284,0-16.277,3.875-17.781,4.778v54.45
	C23.062,92.832,28.582,91.136,34.563,91.136z M16.783,98.824V40.997l0.3-0.199c0.32-0.213,7.946-5.192,18.832-5.192
	c6.264,0,12.315,1.67,17.992,4.965c1.668-1.015,8.777-4.965,18.47-4.965c6.396,0,12.569,1.741,18.353,5.174l0.33,0.197v57.761
	l-1.052-0.693c-0.083-0.057-8.519-5.564-18.981-5.564c-6.123,0-11.743,1.865-16.702,5.543l-0.381,0.283l-0.396-0.262
	c-0.084-0.057-8.521-5.564-18.982-5.564c-6.124,0-11.743,1.865-16.702,5.543L16.783,98.824z"/>
<rect x="53.246" y="43.207" fill="#E8033C" width="1.349" height="50.75"/>
<path fill="#E8033C" d="M90.041,101.033c-21.304-12.46-34.312-0.655-34.854-0.146l-0.928-0.978
	c0.141-0.132,14.256-13.025,36.467-0.036L90.041,101.033"/>
<path fill="#E8033C" d="M52.48,101.016c-18.678-12.252-34.448-0.214-34.604-0.09l-0.836-1.057
	c0.166-0.131,16.703-12.754,36.182,0.023L52.48,101.016"/>
<polyline fill="#E8033C" points="49.194,103.176 13.52,103.176 13.52,44.606 14.871,44.606 14.871,101.833 49.194,101.833 
	49.194,103.176 "/>
<polyline fill="#E8033C" points="93.813,103.176 58.142,103.176 58.142,101.833 92.465,101.833 92.465,44.606 93.813,44.606 
	93.813,103.176 "/>
<rect x="25.448" y="98.604" fill="#E8033C" width="16.994" height="1.344"/>
<rect x="64.056" y="98.604" fill="#E8033C" width="16.993" height="1.344"/>
<path fill="#E8033C" d="M22.691,46.289v10.37c1.202-0.249,3.446-0.689,4.895-0.815V45.41L22.691,46.289z M21.341,58.328V45.165
	l7.597-1.361v13.35h-0.676c-1.595,0-6.055,0.981-6.1,0.992L21.341,58.328z"/>
<path fill="#E8033C" d="M45.476,45.228c-3.929-1.621-13.601-0.442-13.697-0.43l-0.167-1.335c0.411-0.051,10.128-1.231,14.38,0.523
	L45.476,45.228"/>
<path fill="#E8033C" d="M45.638,49.752c-8.624-1.226-13.187-0.028-13.231-0.016l-0.354-1.296c0.195-0.053,4.879-1.285,13.776-0.017
	L45.638,49.752"/>
</svg>
