<?xml version="1.0" encoding="utf-8"?>
<!-- Generator: Adobe Illustrator 16.0.0, SVG Export Plug-In . SVG Version: 6.00 Build 0)  -->
<!DOCTYPE svg PUBLIC "-//W3C//DTD SVG 1.1//EN" "http://www.w3.org/Graphics/SVG/1.1/DTD/svg11.dtd">
<svg version="1.1" id="Слой_1" xmlns="http://www.w3.org/2000/svg" xmlns:xlink="http://www.w3.org/1999/xlink" x="0px" y="0px"
	 width="107.334px" height="103.176px" viewBox="0 0 107.334 103.176" enable-background="new 0 0 107.334 103.176"
	 xml:space="preserve">
<g>
	<g>
		<defs>
			<path id="SVGID_25_" d="M34.563,91.136c9.692,0,17.487,4.403,19.33,5.535c5.104-3.674,10.865-5.535,17.132-5.535
				c8.81,0,16.053,3.639,18.683,5.149V41.742c-5.475-3.179-11.303-4.79-17.331-4.79c-10.458,0-18.007,4.916-18.083,4.965
				l-0.354,0.235l-0.365-0.217c-5.57-3.307-11.512-4.983-17.66-4.983c-9.284,0-16.277,3.875-17.781,4.778v54.45
				C23.062,92.832,28.582,91.136,34.563,91.136z M16.783,98.824V40.997l0.3-0.199c0.32-0.213,7.946-5.192,18.832-5.192
				c6.264,0,12.315,1.67,17.992,4.965c1.668-1.015,8.777-4.965,18.47-4.965c6.396,0,12.57,1.741,18.352,5.174l0.33,0.197v57.761
				l-1.051-0.693c-0.083-0.057-8.519-5.565-18.982-5.565c-6.123,0-11.743,1.866-16.702,5.543l-0.381,0.284l-0.396-0.262
				c-0.084-0.057-8.521-5.565-18.982-5.565c-6.124,0-11.743,1.866-16.702,5.543L16.783,98.824z"/>
		</defs>
		<clipPath id="SVGID_2_">
			<use xlink:href="#SVGID_25_"  overflow="visible"/>
		</clipPath>
		<rect x="11.589" y="30.412" clip-path="url(#SVGID_2_)" fill="#4077B6" width="84.663" height="73.605"/>
	</g>
	<g>
		<defs>
			<rect id="SVGID_27_" x="53.246" y="43.207" width="1.349" height="50.75"/>
		</defs>
		<clipPath id="SVGID_4_">
			<use xlink:href="#SVGID_27_"  overflow="visible"/>
		</clipPath>
		<rect x="48.052" y="38.013" clip-path="url(#SVGID_4_)" fill="#4077B6" width="11.737" height="61.138"/>
	</g>
	<g>
		<defs>
			<path id="SVGID_29_" d="M90.041,101.033c-21.304-12.46-34.312-0.655-34.855-0.146l-0.927-0.978
				c0.14-0.132,14.256-13.025,36.466-0.036L90.041,101.033"/>
		</defs>
		<clipPath id="SVGID_6_">
			<use xlink:href="#SVGID_29_"  overflow="visible"/>
		</clipPath>
		<rect x="49.064" y="88.886" clip-path="url(#SVGID_6_)" fill="#4077B6" width="46.854" height="17.342"/>
	</g>
	<g>
		<defs>
			<path id="SVGID_31_" d="M52.48,101.015c-18.678-12.252-34.448-0.213-34.604-0.089l-0.836-1.057
				c0.166-0.131,16.703-12.754,36.182,0.023L52.48,101.015"/>
		</defs>
		<clipPath id="SVGID_8_">
			<use xlink:href="#SVGID_31_"  overflow="visible"/>
		</clipPath>
		<rect x="11.846" y="88.983" clip-path="url(#SVGID_8_)" fill="#4077B6" width="46.57" height="17.226"/>
	</g>
	<g>
		<defs>
			<polyline id="SVGID_33_" points="49.194,103.176 13.52,103.176 13.52,44.606 14.871,44.606 14.871,101.833 49.194,101.833 
				49.194,103.176 			"/>
		</defs>
		<clipPath id="SVGID_10_">
			<use xlink:href="#SVGID_33_"  overflow="visible"/>
		</clipPath>
		<rect x="8.325" y="39.413" clip-path="url(#SVGID_10_)" fill="#4077B6" width="46.063" height="68.958"/>
	</g>
	<g>
		<defs>
			<polyline id="SVGID_35_" points="93.814,103.176 58.142,103.176 58.142,101.833 92.465,101.833 92.465,44.606 93.814,44.606 
				93.814,103.176 			"/>
		</defs>
		<clipPath id="SVGID_12_">
			<use xlink:href="#SVGID_35_"  overflow="visible"/>
		</clipPath>
		<rect x="52.948" y="39.413" clip-path="url(#SVGID_12_)" fill="#4077B6" width="46.061" height="68.958"/>
	</g>
	<g>
		<defs>
			<rect id="SVGID_37_" x="25.448" y="98.604" width="16.994" height="1.343"/>
		</defs>
		<clipPath id="SVGID_14_">
			<use xlink:href="#SVGID_37_"  overflow="visible"/>
		</clipPath>
		<rect x="20.255" y="93.41" clip-path="url(#SVGID_14_)" fill="#4077B6" width="27.381" height="11.731"/>
	</g>
	<g>
		<defs>
			<rect id="SVGID_39_" x="64.056" y="98.604" width="16.993" height="1.343"/>
		</defs>
		<clipPath id="SVGID_16_">
			<use xlink:href="#SVGID_39_"  overflow="visible"/>
		</clipPath>
		<rect x="58.861" y="93.41" clip-path="url(#SVGID_16_)" fill="#4077B6" width="27.381" height="11.731"/>
	</g>
	<g>
		<defs>
			<path id="SVGID_41_" d="M22.691,46.289v10.37c1.202-0.249,3.446-0.689,4.895-0.815V45.41L22.691,46.289z M21.341,58.328V45.165
				l7.597-1.361v13.35h-0.676c-1.595,0-6.055,0.982-6.1,0.992L21.341,58.328z"/>
		</defs>
		<clipPath id="SVGID_18_">
			<use xlink:href="#SVGID_41_"  overflow="visible"/>
		</clipPath>
		<rect x="16.147" y="38.609" clip-path="url(#SVGID_18_)" fill="#4077B6" width="17.984" height="24.913"/>
	</g>
	<g>
		<defs>
			<path id="SVGID_43_" d="M45.476,45.228c-3.929-1.621-13.601-0.442-13.697-0.43l-0.167-1.335
				c0.411-0.051,10.128-1.231,14.38,0.523L45.476,45.228"/>
		</defs>
		<clipPath id="SVGID_20_">
			<use xlink:href="#SVGID_43_"  overflow="visible"/>
		</clipPath>
		<rect x="26.417" y="37.832" clip-path="url(#SVGID_20_)" fill="#4077B6" width="24.769" height="12.589"/>
	</g>
	<g>
		<defs>
			<path id="SVGID_45_" d="M45.638,49.752c-8.624-1.226-13.187-0.028-13.231-0.016l-0.354-1.296
				c0.195-0.053,4.879-1.285,13.776-0.017L45.638,49.752"/>
		</defs>
		<clipPath id="SVGID_22_">
			<use xlink:href="#SVGID_45_"  overflow="visible"/>
		</clipPath>
		<rect x="26.857" y="42.657" clip-path="url(#SVGID_22_)" fill="#4077B6" width="24.165" height="12.29"/>
	</g>
</g>
</svg>
