<?xml version="1.0" encoding="utf-8"?>
<!-- Generator: Adobe Illustrator 16.0.0, SVG Export Plug-In . SVG Version: 6.00 Build 0)  -->
<!DOCTYPE svg PUBLIC "-//W3C//DTD SVG 1.1//EN" "http://www.w3.org/Graphics/SVG/1.1/DTD/svg11.dtd">
<svg version="1.1" id="Слой_1" xmlns="http://www.w3.org/2000/svg" xmlns:xlink="http://www.w3.org/1999/xlink" x="0px" y="0px"
	 width="89.643px" height="188.93px" viewBox="0 0 89.643 188.93" enable-background="new 0 0 89.643 188.93" xml:space="preserve">
<g id="Слой_1_1_">
</g>
<path fill="#E8033C" d="M1.429,187.5h86.786V1.429H1.429V187.5z M0,0h89.643v188.93H0V0z"/>
<path fill="#E8033C" d="M17.588,100.749h54.467V39.765c0-11.987-12.727-22.503-27.233-22.503c-14.506,0-27.232,10.515-27.232,22.503
	L17.588,100.749L17.588,100.749z M73.482,102.177H16.162V39.765c0-12.749,13.393-23.933,28.657-23.933
	c15.271,0,28.661,11.184,28.661,23.933L73.482,102.177L73.482,102.177z"/>
<path fill="#E8033C" d="M72.768,112.499c-2.238,0-4.062,1.821-4.062,4.062c0,2.239,1.822,4.062,4.062,4.062
	c2.24,0,4.062-1.822,4.062-4.062S75.008,112.499,72.768,112.499z M72.768,122.052c-3.025,0-5.49-2.463-5.49-5.49
	s2.465-5.491,5.49-5.491c3.028,0,5.491,2.464,5.491,5.491C78.259,119.59,75.796,122.052,72.768,122.052z"/>
<polyline fill="#E8033C" points="33.393,99.018 19.643,99.018 19.643,74.91 21.071,74.91 21.071,97.589 33.393,97.589 
	33.393,99.018 "/>
<path fill="#E8033C" d="M67.52,37.787c-3.066-12.615-15.885-15.753-16.016-15.783l0.324-1.392
	c0.138,0.031,13.799,3.352,17.08,16.838L67.52,37.787"/>
<polyline fill="#E8033C" points="56.071,185 3.929,185 3.929,4.643 5.357,4.643 5.357,183.571 56.071,183.571 56.071,185 "/>
<polyline fill="#E8033C" points="85.476,35.357 84.047,35.357 84.047,5.357 73.602,5.357 73.602,3.929 85.476,3.929 85.476,35.357 
	"/>
<rect x="44.107" y="21.309" fill="#E8033C" width="1.43" height="76.993"/>
<rect x="20.357" y="48.453" fill="#E8033C" width="19.404" height="1.429"/>
<rect x="50.014" y="48.453" fill="#E8033C" width="18.646" height="1.429"/>
<path fill="#E8033C" d="M69.672,118.15c-0.061-0.199-0.555-1.989,0.304-3.352c0.447-0.707,1.19-1.159,2.146-1.31l0.222,1.41
	c-0.552,0.086-0.93,0.303-1.155,0.657c-0.438,0.689-0.254,1.812-0.145,2.188L69.672,118.15"/>
</svg>
