<?xml version="1.0" encoding="utf-8"?>
<!-- Generator: Adobe Illustrator 16.0.0, SVG Export Plug-In . SVG Version: 6.00 Build 0)  -->
<!DOCTYPE svg PUBLIC "-//W3C//DTD SVG 1.1//EN" "http://www.w3.org/Graphics/SVG/1.1/DTD/svg11.dtd">
<svg version="1.1" id="Слой_1" xmlns="http://www.w3.org/2000/svg" xmlns:xlink="http://www.w3.org/1999/xlink" x="0px" y="0px"
	 width="90.203px" height="189.924px" viewBox="0 0 90.203 189.924" enable-background="new 0 0 90.203 189.924"
	 xml:space="preserve">
<g id="Слой_1_1_">
</g>
<path fill="#E8033C" d="M1.438,188.485h87.328V1.436H1.438V188.485z M0,0h90.203v189.924H0V0z"/>
<path fill="#E8033C" d="M73.312,91.37c-2.254,0-4.088,1.831-4.088,4.083s1.834,4.084,4.088,4.084s4.088-1.832,4.088-4.084
	S75.566,91.37,73.312,91.37z M73.312,100.974c-3.047,0-5.525-2.477-5.525-5.521c0-3.043,2.479-5.519,5.525-5.519
	c3.045,0,5.524,2.476,5.524,5.519C78.838,98.497,76.357,100.974,73.312,100.974z"/>
<polyline fill="#E8033C" points="56.422,185.974 3.953,185.974 3.953,50.145 5.391,50.145 5.391,184.536 56.422,184.536 
	56.422,185.974 "/>
<polyline fill="#E8033C" points="86.012,35.544 84.574,35.544 84.574,5.386 74.062,5.386 74.062,3.949 86.012,3.949 86.012,35.544 
	"/>
<rect x="72.594" y="104.71" fill="#E8033C" width="1.438" height="2.756"/>
</svg>
