<?xml version="1.0" encoding="utf-8"?>
<!-- Generator: Adobe Illustrator 16.0.0, SVG Export Plug-In . SVG Version: 6.00 Build 0)  -->
<!DOCTYPE svg PUBLIC "-//W3C//DTD SVG 1.1//EN" "http://www.w3.org/Graphics/SVG/1.1/DTD/svg11.dtd">
<svg version="1.1" id="Слой_1" xmlns="http://www.w3.org/2000/svg" xmlns:xlink="http://www.w3.org/1999/xlink" x="0px" y="0px"
	 width="107.334px" height="103.176px" viewBox="0 0 107.334 103.176" enable-background="new 0 0 107.334 103.176"
	 xml:space="preserve">
<g>
	<path fill="#E8033C" d="M82.87,103.177H24.464V49.533H82.87V103.177z M25.935,101.708h55.464V51.003H25.935V101.708z"/>
	<path fill="#E8033C" d="M77.454,51.003H66.739V30.128c0-7.209-5.865-13.072-13.074-13.072c-7.205,0-13.07,5.863-13.07,13.072
		v10.805H29.88V30.128c0-13.118,10.67-23.787,23.785-23.787c13.119,0,23.789,10.669,23.789,23.787V51.003z M68.208,49.533h7.775
		V30.128c0-12.306-10.012-22.318-22.318-22.318c-12.305,0-22.316,10.013-22.316,22.318v9.335h7.777v-9.335
		c0-8.018,6.521-14.542,14.539-14.542c8.021,0,14.543,6.524,14.543,14.542V49.533z"/>
	<path fill="#E8033C" d="M53.665,97.854c-11.66,0-21.148-9.492-21.148-21.153s9.488-21.149,21.148-21.149
		c11.664,0,21.152,9.488,21.152,21.149S65.329,97.854,53.665,97.854z M53.665,57.021c-10.852,0-19.68,8.828-19.68,19.679
		c0,10.854,8.828,19.682,19.68,19.682c10.854,0,19.684-8.827,19.684-19.682C73.349,65.85,64.519,57.021,53.665,57.021z"/>
	<path fill="#E8033C" d="M53.665,88.152c-6.314,0-11.449-5.137-11.449-11.453c0-6.312,5.135-11.449,11.449-11.449
		c6.316,0,11.451,5.137,11.451,11.449C65.116,83.016,59.981,88.152,53.665,88.152z M53.665,66.72c-5.502,0-9.98,4.479-9.98,9.979
		c0,5.505,4.479,9.98,9.98,9.98c5.506,0,9.982-4.477,9.982-9.98C63.647,71.197,59.171,66.72,53.665,66.72z"/>
	<path fill="#E8033C" d="M46.821,76.354h-1.277c0-2.16,2.084-8.096,8.789-8.096v1.276C48.126,69.535,46.821,75.232,46.821,76.354z"
		/>
	
		<rect x="39.356" y="64.25" transform="matrix(-0.7443 -0.6678 0.6678 -0.7443 27.8735 140.6409)" fill="#E8033C" width="3.005" height="1.469"/>
	
		<rect x="41.122" y="62.596" transform="matrix(-0.4818 -0.8763 0.8763 -0.4818 7.8831 131.3236)" fill="#E8033C" width="3.295" height="1.47"/>
	
		<rect x="36.262" y="76.909" transform="matrix(-0.2127 -0.9771 0.9771 -0.2127 -32.0142 131.5665)" fill="#E8033C" width="1.469" height="3.543"/>
	<path fill="#E8033C" d="M37.302,20.248l-1.248-0.78c0.158-0.254,3.945-6.229,8.756-7.881l0.477,1.389
		C40.964,14.461,37.337,20.191,37.302,20.248z"/>
	<rect x="73.181" y="28.258" fill="#E8033C" width="1.469" height="22.01"/>
</g>
</svg>
