<?xml version="1.0" encoding="utf-8"?>
<!-- Generator: Adobe Illustrator 16.0.0, SVG Export Plug-In . SVG Version: 6.00 Build 0)  -->
<!DOCTYPE svg PUBLIC "-//W3C//DTD SVG 1.1//EN" "http://www.w3.org/Graphics/SVG/1.1/DTD/svg11.dtd">
<svg version="1.1" id="Слой_1" xmlns="http://www.w3.org/2000/svg" xmlns:xlink="http://www.w3.org/1999/xlink" x="0px" y="0px"
	 width="107.334px" height="103.176px" viewBox="0 0 107.334 103.176" enable-background="new 0 0 107.334 103.176"
	 xml:space="preserve">
<g>
	<path fill="#4077B6" d="M82.87,103.177H24.464V49.533H82.87V103.177z M25.935,101.708h55.465V51.003H25.935V101.708z"/>
	<path fill="#4077B6" d="M77.454,51.003H66.739V30.128c0-7.209-5.865-13.072-13.074-13.072c-7.205,0-13.07,5.863-13.07,13.072
		v10.805H29.88V30.128c0-13.118,10.67-23.787,23.785-23.787c13.119,0,23.789,10.669,23.789,23.787V51.003z M68.208,49.533h7.775
		V30.128c0-12.306-10.012-22.318-22.318-22.318c-12.305,0-22.316,10.013-22.316,22.318v9.335h7.777v-9.335
		c0-8.018,6.521-14.542,14.539-14.542c8.021,0,14.543,6.524,14.543,14.542V49.533z"/>
	<path fill="#4077B6" d="M53.665,97.853c-11.66,0-21.148-9.491-21.148-21.153c0-11.661,9.488-21.149,21.148-21.149
		c11.664,0,21.152,9.488,21.152,21.149C74.817,88.361,65.329,97.853,53.665,97.853z M53.665,57.021
		c-10.852,0-19.68,8.829-19.68,19.679c0,10.854,8.828,19.682,19.68,19.682c10.854,0,19.684-8.828,19.684-19.682
		C73.349,65.85,64.519,57.021,53.665,57.021z"/>
	<path fill="#4077B6" d="M53.665,88.152c-6.314,0-11.449-5.137-11.449-11.453c0-6.312,5.135-11.449,11.449-11.449
		c6.316,0,11.451,5.137,11.451,11.449C65.116,83.016,59.981,88.152,53.665,88.152z M53.665,66.72c-5.502,0-9.98,4.478-9.98,9.979
		c0,5.505,4.479,9.981,9.98,9.981c5.506,0,9.982-4.477,9.982-9.981C63.647,71.197,59.171,66.72,53.665,66.72z"/>
	<path fill="#4077B6" d="M46.821,76.354h-1.277c0-2.161,2.084-8.096,8.789-8.096v1.276C48.126,69.535,46.821,75.233,46.821,76.354z"
		/>
	
		<rect x="39.355" y="64.247" transform="matrix(0.7443 0.6679 -0.6679 0.7443 53.8493 -10.6698)" fill="#4077B6" width="3.005" height="1.469"/>
	
		<rect x="41.121" y="62.594" transform="matrix(0.482 0.8762 -0.8762 0.482 77.644 -4.6667)" fill="#4077B6" width="3.295" height="1.47"/>
	
		<rect x="36.261" y="76.91" transform="matrix(0.2127 0.9771 -0.9771 0.2127 106.0072 25.7971)" fill="#4077B6" width="1.469" height="3.543"/>
	<path fill="#4077B6" d="M37.302,20.248l-1.248-0.78c0.158-0.254,3.945-6.229,8.756-7.881l0.477,1.389
		C40.964,14.461,37.337,20.191,37.302,20.248z"/>
	<rect x="73.181" y="28.258" fill="#4077B6" width="1.469" height="22.01"/>
</g>
</svg>
