<?xml version="1.0" encoding="utf-8"?>
<!-- Generator: Adobe Illustrator 16.0.0, SVG Export Plug-In . SVG Version: 6.00 Build 0)  -->
<!DOCTYPE svg PUBLIC "-//W3C//DTD SVG 1.1//EN" "http://www.w3.org/Graphics/SVG/1.1/DTD/svg11.dtd">
<svg version="1.1" xmlns="http://www.w3.org/2000/svg" xmlns:xlink="http://www.w3.org/1999/xlink" x="0px" y="0px"
	 width="585.765px" height="515.83px" viewBox="0 0 585.765 515.83" enable-background="new 0 0 585.765 515.83"
	 xml:space="preserve">
<g id="Слой_1">
</g>
<g id="Слой_2">
	<g>
		<g opacity="0.3" enable-background="new    ">
			<g>
				<defs>
					<rect id="SVGID_41_" x="4.915" y="18.471" width="58" height="114"/>
				</defs>
				<clipPath id="SVGID_2_">
					<use xlink:href="#SVGID_41_"  overflow="visible"/>
				</clipPath>
				<g clip-path="url(#SVGID_2_)">
					<defs>
						<rect id="SVGID_43_" x="4.915" y="18.471" width="58" height="114"/>
					</defs>
					<clipPath id="SVGID_4_">
						<use xlink:href="#SVGID_43_"  overflow="visible"/>
					</clipPath>
					<g clip-path="url(#SVGID_4_)" enable-background="new    ">
						<g>
							<defs>
								<rect id="SVGID_45_" x="4.915" y="18.471" width="58" height="114"/>
							</defs>
							<clipPath id="SVGID_6_">
								<use xlink:href="#SVGID_45_"  overflow="visible"/>
							</clipPath>
							<g clip-path="url(#SVGID_6_)">
								<defs>
									<path id="SVGID_47_" d="M12.303,120.79l44.442,2.386V39.211l-44.442-8.505V120.79z M58.251,124.759l-47.455-2.549V28.892
										l47.455,9.08V124.759z"/>
								</defs>
								<clipPath id="SVGID_8_">
									<use xlink:href="#SVGID_47_"  overflow="visible"/>
								</clipPath>
								<g clip-path="url(#SVGID_8_)">
									<defs>
										<rect id="SVGID_49_" x="4.915" y="18.471" width="58" height="114"/>
									</defs>
									<clipPath id="SVGID_10_">
										<use xlink:href="#SVGID_49_"  overflow="visible"/>
									</clipPath>
									<rect x="5.796" y="23.892" clip-path="url(#SVGID_10_)" fill="#4077B6" width="57.455" height="105.867"/>
								</g>
							</g>
							<g clip-path="url(#SVGID_6_)">
								<defs>
									<path id="SVGID_51_" d="M6.507,128.359l54.526,2.119V32.791L6.507,20.448V128.359z M62.54,132.039L5,129.801V18.569
										l57.54,13.024V132.039z"/>
								</defs>
								<clipPath id="SVGID_12_">
									<use xlink:href="#SVGID_51_"  overflow="visible"/>
								</clipPath>
								<g clip-path="url(#SVGID_12_)">
									<defs>
										<rect id="SVGID_53_" x="4.915" y="18.471" width="58" height="114"/>
									</defs>
									<clipPath id="SVGID_14_">
										<use xlink:href="#SVGID_53_"  overflow="visible"/>
									</clipPath>
									<rect y="13.569" clip-path="url(#SVGID_14_)" fill="#4077B6" width="67.54" height="123.47"/>
								</g>
							</g>
							<g clip-path="url(#SVGID_6_)">
								<defs>
									<path id="SVGID_55_" d="M16.811,96.393l-0.729-1.313c0.432-0.237,10.616-5.773,23.08-5.903
										c0.52-1.017,1.783-3.986-0.086-5.848l-1.104-1.1l1.552-0.175c0.235-0.026,1.834-0.184,3.227,0.294
										c-0.105-1.031-0.368-2.281-0.949-2.874c-0.203-0.205-0.42-0.3-0.686-0.3h-0.95l0.217-0.922
										c0.165-0.701,0.81-3.017,2.159-3.399c0.327-0.092,0.969-0.146,1.639,0.521l0.115,0.113l0.057,0.152
										c0.275,0.723,1.318,2.785,2.477,2.785c0.684,0,1,0.309,1.144,0.567c0.371,0.665-0.089,1.402-0.575,2.184
										c-0.12,0.192-0.292,0.468-0.407,0.689c1.503,0.07,2.948,1.104,3.552,2.56c0.494,1.184,0.289,2.387-0.545,3.217
										c-1.033,1.03-1.229,1.723-1.184,1.86c0.006,0,0.146,0.11,0.651,0.11v1.5c-1.333,0-1.847-0.564-2.043-1.037
										c-0.509-1.225,0.728-2.715,1.511-3.493c0.539-0.538,0.369-1.224,0.219-1.583c-0.339-0.813-1.245-1.638-2.322-1.638
										c-0.646,0-1.092-0.21-1.323-0.627c-0.403-0.722,0.112-1.549,0.611-2.351c0.089-0.14,0.205-0.327,0.302-0.499
										c-1.949-0.357-3.1-2.798-3.406-3.539c-0.043-0.032-0.072-0.046-0.082-0.048c-0.217,0.068-0.592,0.763-0.869,1.566
										c0.301,0.127,0.575,0.315,0.817,0.563c1.483,1.513,1.447,4.886,1.438,5.265l-0.041,1.751l-1.244-1.238
										c-0.428-0.424-1.23-0.602-1.964-0.664c1.491,2.981-0.709,6.603-0.817,6.776l-0.221,0.356h-0.42
										C27.344,90.673,16.914,96.335,16.811,96.393"/>
								</defs>
								<clipPath id="SVGID_16_">
									<use xlink:href="#SVGID_55_"  overflow="visible"/>
								</clipPath>
								<g clip-path="url(#SVGID_16_)">
									<defs>
										<rect id="SVGID_57_" x="4.915" y="18.471" width="58" height="114"/>
									</defs>
									<clipPath id="SVGID_18_">
										<use xlink:href="#SVGID_57_"  overflow="visible"/>
									</clipPath>
									<rect x="11.081" y="69.799" clip-path="url(#SVGID_18_)" fill="#4077B6" width="44.725" height="31.594"/>
								</g>
							</g>
							<g clip-path="url(#SVGID_6_)">
								<defs>
									<path id="SVGID_59_" d="M27.368,47.531c-4.293,0-7.783,4.654-7.783,10.375s3.49,10.375,7.783,10.375
										c4.291,0,7.783-4.654,7.783-10.375S31.659,47.531,27.368,47.531z M27.368,69.781c-5.123,0-9.29-5.327-9.29-11.875
										s4.167-11.875,9.29-11.875c5.121,0,9.289,5.327,9.289,11.875S32.489,69.781,27.368,69.781z"/>
								</defs>
								<clipPath id="SVGID_20_">
									<use xlink:href="#SVGID_59_"  overflow="visible"/>
								</clipPath>
								<g clip-path="url(#SVGID_20_)">
									<defs>
										<rect id="SVGID_61_" x="4.915" y="18.471" width="58" height="114"/>
									</defs>
									<clipPath id="SVGID_22_">
										<use xlink:href="#SVGID_61_"  overflow="visible"/>
									</clipPath>
									<rect x="13.078" y="41.031" clip-path="url(#SVGID_22_)" fill="#4077B6" width="28.579" height="33.75"/>
								</g>
							</g>
						</g>
					</g>
				</g>
			</g>
		</g>
		<g opacity="0.3" enable-background="new    ">
			<g>
				<defs>
					<rect id="SVGID_63_" x="407.915" y="285.471" width="173" height="194"/>
				</defs>
				<clipPath id="SVGID_24_">
					<use xlink:href="#SVGID_63_"  overflow="visible"/>
				</clipPath>
				<g clip-path="url(#SVGID_24_)">
					<defs>
						<rect id="SVGID_65_" x="407.915" y="285.471" width="173" height="194"/>
					</defs>
					<clipPath id="SVGID_26_">
						<use xlink:href="#SVGID_65_"  overflow="visible"/>
					</clipPath>
					<g clip-path="url(#SVGID_26_)" enable-background="new    ">
						<g>
							<defs>
								<rect id="SVGID_67_" x="407.915" y="285.471" width="173" height="194"/>
							</defs>
							<clipPath id="SVGID_28_">
								<use xlink:href="#SVGID_67_"  overflow="visible"/>
							</clipPath>
							<g clip-path="url(#SVGID_28_)">
								<defs>
									<path id="SVGID_69_" d="M412.975,423.418c-0.116-0.149-11.456-15.07,0.882-28.702l0.349-0.386l0.517,0.064
										c0.911,0.114,91.788,11.298,154.231,4.098l1.524-0.182c2.901-0.56,5.756-1.748,5.92-2.481
										c0.015-0.071-0.12-0.34-0.638-0.716l1.174-1.619c1.446,1.049,1.567,2.085,1.415,2.77c-0.555,2.494-5.93,3.709-7.563,4.022
										l-1.604,0.191c-60.204,6.946-146.633-3.127-154.184-4.035c-10.672,12.296-0.55,25.613-0.445,25.747L412.975,423.418"/>
								</defs>
								<clipPath id="SVGID_30_">
									<use xlink:href="#SVGID_69_"  overflow="visible"/>
								</clipPath>
								<g clip-path="url(#SVGID_30_)">
									<defs>
										<rect id="SVGID_71_" x="407.915" y="285.471" width="173" height="194"/>
									</defs>
									<clipPath id="SVGID_32_">
										<use xlink:href="#SVGID_71_"  overflow="visible"/>
									</clipPath>
									<rect x="403.106" y="388.495" clip-path="url(#SVGID_32_)" fill="#4077B6" width="180.293" height="39.924"/>
								</g>
							</g>
							<g clip-path="url(#SVGID_28_)">
								<defs>
									<path id="SVGID_73_" d="M520.356,431.074c-15.742,0-32.114-0.791-46.098-1.74c-31.417-2.134-57.859-5.503-58.122-5.537
										l0.254-1.984c0.263,0.034,26.655,3.397,58.014,5.526c41.443,2.814,72.7,2.206,90.391-1.76
										c0.097-0.021,7.485-1.509,12.183-3.683l0.841,1.816c-4.917,2.272-12.296,3.761-12.609,3.823
										C553.513,430.157,537.299,431.074,520.356,431.074"/>
								</defs>
								<clipPath id="SVGID_34_">
									<use xlink:href="#SVGID_73_"  overflow="visible"/>
								</clipPath>
								<g clip-path="url(#SVGID_34_)">
									<defs>
										<rect id="SVGID_75_" x="407.915" y="285.471" width="173" height="194"/>
									</defs>
									<clipPath id="SVGID_36_">
										<use xlink:href="#SVGID_75_"  overflow="visible"/>
									</clipPath>
									<rect x="411.137" y="416.812" clip-path="url(#SVGID_36_)" fill="#4077B6" width="171.682" height="19.262"/>
								</g>
							</g>
							<g clip-path="url(#SVGID_28_)">
								<defs>
									<path id="SVGID_77_" d="M429.14,395.089c-0.035-1.032-0.876-25.296-0.876-27.785c0-1.576-3.634-3.5-7.875-3.5
										c-3.755,0-6.5,3.289-6.5,5v25.5h-2v-25.5c0-2.819,3.569-7,8.5-7c4.769,0,9.875,2.21,9.875,5.5
										c0,2.454,0.865,27.463,0.874,27.715L429.14,395.089"/>
								</defs>
								<clipPath id="SVGID_38_">
									<use xlink:href="#SVGID_77_"  overflow="visible"/>
								</clipPath>
								<g clip-path="url(#SVGID_38_)">
									<defs>
										<rect id="SVGID_79_" x="407.915" y="285.471" width="173" height="194"/>
									</defs>
									<clipPath id="SVGID_40_">
										<use xlink:href="#SVGID_79_"  overflow="visible"/>
									</clipPath>
									<rect x="406.889" y="356.804" clip-path="url(#SVGID_40_)" fill="#4077B6" width="29.249" height="43.285"/>
								</g>
							</g>
							<g clip-path="url(#SVGID_28_)">
								<defs>
									<path id="SVGID_81_" d="M580.765,399.638h-2v-33.834c0-0.759-0.131-7.604-0.296-16.271
										c-0.347-18.146-0.871-45.57-0.871-52.062c0-2.896-0.721-4.977-2.143-6.183c-1.839-1.561-4.331-1.169-4.356-1.165
										l-0.167,0.015c-4.887,0-6.215,2.5-6.27,2.606l-1.891,3.718l-0.007-4.158c0-3.057-5.781-4.166-9.667-4.166h-94.333
										c-3.938,0-4.819,3.875-4.854,4.04l-0.193,0.895l-0.909-0.109c-0.439-0.056-0.862-0.244-1.351-0.463
										c-1.457-0.654-3.659-1.644-7.933,0.375c-3.329,1.572-2.33,20.946,0.561,38.769l0.037,0.231l-0.068,0.223
										c-1.364,4.434-22.798,26.709-25.237,29.234l-1.438-1.39c9.256-9.581,23.257-24.791,24.691-28.234
										c-1.102-6.855-5.676-37.678,0.602-40.642c5.104-2.41,8.033-1.098,9.605-0.392c0.003,0.002,0.006,0.003,0.009,0.004
										c0.785-1.98,2.754-4.541,6.479-4.541h94.333c4.764,0,9.562,1.282,11.134,4.095c1.177-0.997,3.234-2.079,6.624-2.095
										c0.579-0.079,3.522-0.369,5.872,1.607c1.904,1.602,2.87,4.201,2.87,7.726c0,6.472,0.523,33.885,0.87,52.024
										c0.173,9.016,0.297,15.53,0.297,16.309V399.638"/>
								</defs>
								<clipPath id="SVGID_42_">
									<use xlink:href="#SVGID_81_"  overflow="visible"/>
								</clipPath>
								<g clip-path="url(#SVGID_42_)">
									<defs>
										<rect id="SVGID_83_" x="407.915" y="285.471" width="173" height="194"/>
									</defs>
									<clipPath id="SVGID_44_">
										<use xlink:href="#SVGID_83_"  overflow="visible"/>
									</clipPath>
									<rect x="412.378" y="281.138" clip-path="url(#SVGID_44_)" fill="#4077B6" width="173.387" height="123.5"/>
								</g>
							</g>
							<g clip-path="url(#SVGID_28_)">
								<defs>
									<path id="SVGID_85_" d="M434.943,393.206l-1.357-1.469l19.616-18.145c-1.571-12.172-1.125-73.485-1.104-76.129l2,0.016
										c-0.005,0.656-0.479,65.709,1.155,76.34l0.081,0.525L434.943,393.206"/>
								</defs>
								<clipPath id="SVGID_46_">
									<use xlink:href="#SVGID_85_"  overflow="visible"/>
								</clipPath>
								<g clip-path="url(#SVGID_46_)">
									<defs>
										<rect id="SVGID_87_" x="407.915" y="285.471" width="173" height="194"/>
									</defs>
									<clipPath id="SVGID_48_">
										<use xlink:href="#SVGID_87_"  overflow="visible"/>
									</clipPath>
									<rect x="428.586" y="292.463" clip-path="url(#SVGID_48_)" fill="#4077B6" width="31.748" height="105.742"/>
								</g>
							</g>
							<g clip-path="url(#SVGID_28_)">
								<defs>
									<polyline id="SVGID_89_" points="432.056,363.415 430.472,362.194 447.305,340.361 448.889,341.582 432.056,363.415 
																			"/>
								</defs>
								<clipPath id="SVGID_50_">
									<use xlink:href="#SVGID_89_"  overflow="visible"/>
								</clipPath>
								<g clip-path="url(#SVGID_50_)">
									<defs>
										<rect id="SVGID_91_" x="407.915" y="285.471" width="173" height="194"/>
									</defs>
									<clipPath id="SVGID_52_">
										<use xlink:href="#SVGID_91_"  overflow="visible"/>
									</clipPath>
									<rect x="425.472" y="335.361" clip-path="url(#SVGID_52_)" fill="#4077B6" width="28.417" height="33.054"/>
								</g>
							</g>
							<g clip-path="url(#SVGID_28_)">
								<defs>
									<polyline id="SVGID_93_" points="561.013,372.837 559.015,372.771 561.515,297.438 563.513,297.504 561.013,372.837 
																			"/>
								</defs>
								<clipPath id="SVGID_54_">
									<use xlink:href="#SVGID_93_"  overflow="visible"/>
								</clipPath>
								<g clip-path="url(#SVGID_54_)">
									<defs>
										<rect id="SVGID_95_" x="407.915" y="285.471" width="173" height="194"/>
									</defs>
									<clipPath id="SVGID_56_">
										<use xlink:href="#SVGID_95_"  overflow="visible"/>
									</clipPath>
									<rect x="554.015" y="292.438" clip-path="url(#SVGID_56_)" fill="#4077B6" width="14.498" height="85.399"/>
								</g>
							</g>
							<g clip-path="url(#SVGID_28_)">
								<defs>
									<path id="SVGID_97_" d="M562.884,394.399l-1.99-0.189l2.5-26.25c0.047-1.997,1.367-5.905,5.995-5.905
										c0.648,0,1.308-0.02,1.964-0.041c2.952-0.09,6.011-0.184,7.855,1.606c1.048,1.015,1.557,2.466,1.557,4.435h-2
										c0-1.399-0.311-2.38-0.949-3c-1.236-1.2-3.747-1.123-6.401-1.041c-0.677,0.021-1.356,0.041-2.025,0.041
										c-3.855,0-3.995,3.861-4,4.025L562.884,394.399"/>
								</defs>
								<clipPath id="SVGID_58_">
									<use xlink:href="#SVGID_97_"  overflow="visible"/>
								</clipPath>
								<g clip-path="url(#SVGID_58_)">
									<defs>
										<rect id="SVGID_99_" x="407.915" y="285.471" width="173" height="194"/>
									</defs>
									<clipPath id="SVGID_60_">
										<use xlink:href="#SVGID_99_"  overflow="visible"/>
									</clipPath>
									<rect x="555.894" y="356.973" clip-path="url(#SVGID_60_)" fill="#4077B6" width="29.871" height="42.426"/>
								</g>
							</g>
							<g clip-path="url(#SVGID_28_)">
								<defs>
									<path id="SVGID_101_" d="M558.226,478.808c-4.075,0-7.524-0.98-7.741-1.043l-0.796-0.232l0.08-0.824
										c3.047-31.564-3.104-37.146-4.189-37.872c-23.021,2.881-102.592-3.75-105.983-4.035c-0.546-0.032-1.053,0.194-1.547,0.707
										c-4.877,5.057-3.666,31.46-2.788,41.206l0.119,1.32l-12.616-2.402v-0.828c0-11.717-10.725-47.707-10.833-48.07l1.916-0.572
										c0.436,1.458,10.459,35.097,10.901,47.812l8.413,1.604c-0.22-2.841-0.7-9.882-0.713-17.331
										c-0.022-13.122,1.377-21.239,4.161-24.126c0.901-0.936,1.946-1.375,3.124-1.313c0.861,0.071,83.52,6.957,105.899,4.007
										l0.224-0.03l0.215,0.069c0.94,0.305,9.033,3.979,5.769,39.192c1.98,0.456,7.272,1.43,11.6,0.034
										c0.382-4.971,2.976-34.808,10.652-41.766l1.345,1.482c-7.615,6.899-10.026,40.736-10.05,41.078l-0.044,0.637l-0.597,0.228
										C562.649,478.542,560.353,478.808,558.226,478.808"/>
								</defs>
								<clipPath id="SVGID_62_">
									<use xlink:href="#SVGID_101_"  overflow="visible"/>
								</clipPath>
								<g clip-path="url(#SVGID_62_)">
									<defs>
										<rect id="SVGID_103_" x="407.915" y="285.471" width="173" height="194"/>
									</defs>
									<clipPath id="SVGID_64_">
										<use xlink:href="#SVGID_103_"  overflow="visible"/>
									</clipPath>
									<rect x="406.931" y="421.162" clip-path="url(#SVGID_64_)" fill="#4077B6" width="173.506" height="62.646"/>
								</g>
							</g>
							<g clip-path="url(#SVGID_28_)">
								<defs>
									<path id="SVGID_105_" d="M551.618,373.793c-33.151-4.882-56.41-4.633-70.086-3.565c-14.812,1.158-21.878,3.5-21.948,3.523
										l-0.642-1.895c0.291-0.098,7.291-2.428,22.306-3.612c13.792-1.085,37.251-1.351,70.661,3.57L551.618,373.793"/>
								</defs>
								<clipPath id="SVGID_66_">
									<use xlink:href="#SVGID_105_"  overflow="visible"/>
								</clipPath>
								<g clip-path="url(#SVGID_66_)">
									<defs>
										<rect id="SVGID_107_" x="407.915" y="285.471" width="173" height="194"/>
									</defs>
									<clipPath id="SVGID_68_">
										<use xlink:href="#SVGID_107_"  overflow="visible"/>
									</clipPath>
									<rect x="453.942" y="362.593" clip-path="url(#SVGID_68_)" fill="#4077B6" width="102.967" height="16.2"/>
								</g>
							</g>
						</g>
					</g>
				</g>
			</g>
		</g>
		<g>
			<defs>
				<path id="SVGID_109_" d="M310.271,448.84l-7.322,2.181l-0.54-192.668c0.131,0.023,0.269,0.035,0.41,0.035
					c0.134,0,0.266-0.012,0.393-0.034c0.086-0.015,0.168-0.038,0.249-0.062c0.036-0.01,0.073-0.017,0.108-0.029
					c0.09-0.031,0.175-0.071,0.258-0.113c0.023-0.013,0.049-0.023,0.073-0.037c0.077-0.044,0.149-0.095,0.218-0.148
					c0.018-0.013,0.037-0.021,0.054-0.036c0.009-0.007,0.015-0.018,0.023-0.024c0.081-0.069,0.153-0.147,0.22-0.229
					c0.021-0.024,0.043-0.047,0.061-0.072c0.061-0.084,0.111-0.174,0.157-0.268c0.015-0.03,0.032-0.058,0.046-0.088
					c0.043-0.099,0.073-0.204,0.1-0.312c0.008-0.03,0.02-0.058,0.025-0.089c0.027-0.14,0.044-0.285,0.044-0.437
					c0-0.848,0.017-1.918,0.036-2.976c0.017-1.046,0.034-2.079,0.034-2.88c0-0.508-0.13-0.916-0.345-1.237
					c-0.359-0.536-0.953-0.832-1.572-0.952l0.821-152.963c0.688,0.041,1.419-0.173,1.687-0.261c0.05-0.017,0.09-0.03,0.103-0.036
					l0.491-0.183l0.002-0.524c0.001-0.278,0.023-6.826,0-8.076c-0.008-0.396-0.192-1.633-2.158-1.785V59.488L176.817,31.083v457.501
					l-11.255,3.352l1.007-484.96l143.702,38.531V448.84z M302.431,86.125l0.83-0.078c0.014-0.002,0.118-0.01,0.269-0.01
					c0.517,0,1.054,0.116,1.058,0.312c0.001,0.058,0.002,0.131,0.002,0.211c0,0.026,0.002,0.057,0.002,0.085
					c0,0.062,0,0.128,0.001,0.2c0.001,0.034,0.001,0.07,0.001,0.108c0,0.082,0.001,0.169,0.001,0.261v0.078
					c0.003,0.444,0.003,0.99,0.003,1.577c-0.207-0.131-0.476-0.225-0.809-0.226h-0.012c-0.003,0-0.006,0.001-0.009,0h-0.001
					c-0.393,0.005-0.827,0.143-1.35,0.445l0.82,1.277c0.32-0.184,0.493-0.196,0.574-0.203c-0.008-0.003-0.017-0.007-0.025-0.013
					c0,0,0-0.001-0.001-0.001c-0.022-0.018-0.04-0.047-0.053-0.07c-0.006-0.013-0.011-0.024-0.015-0.031l0.879-0.391
					c-0.002,1.586-0.006,3.295-0.009,4.161c-0.368,0.077-0.897,0.093-1.065-0.032l-1.205-0.904l-0.838,156.173l0.035,0.811
					l0.811-0.05c0.714,0,1.075,0.247,1.075,0.736c0,0.794-0.017,1.818-0.035,2.854c-0.018,1.068-0.036,2.147-0.036,3.002
					c0,0.06-0.006,0.109-0.014,0.15c-0.001,0.004-0.002,0.007-0.004,0.011c-0.006,0.027-0.014,0.048-0.021,0.067
					c-0.008,0.017-0.015,0.032-0.023,0.048c-0.001,0.002-0.002,0.003-0.003,0.005c-0.017,0.023-0.035,0.047-0.06,0.068
					c-0.041,0.035-0.098,0.062-0.162,0.081c-0.002,0.001-0.005,0.002-0.008,0.002c-0.064,0.02-0.139,0.03-0.215,0.03
					c-0.252,0-0.406-0.071-0.415-0.086l-1.519,0.002v0.002l0.547,194.683l-122.57,36.503l-0.286,0.085l-0.241,0.072V32.977
					l124.093,27.726v24.59L302.431,86.125z M165.057,5l-1.017,488.972l12.777-3.806v0.001l124.62-37.114v0.002l10.352-3.085V44.343
					L165.057,5z"/>
			</defs>
			<clipPath id="SVGID_70_">
				<use xlink:href="#SVGID_109_"  overflow="visible"/>
			</clipPath>
			<rect x="159.04" clip-path="url(#SVGID_70_)" fill="#4077B6" width="157.749" height="498.972"/>
		</g>
		<g>
			<defs>
				<polyline id="SVGID_111_" points="228.432,25.734 169.802,10.311 169.415,11.779 228.044,27.202 228.432,25.734 				"/>
			</defs>
			<clipPath id="SVGID_72_">
				<use xlink:href="#SVGID_111_"  overflow="visible"/>
			</clipPath>
			<rect x="164.415" y="5.311" clip-path="url(#SVGID_72_)" fill="#4077B6" width="69.017" height="26.891"/>
		</g>
		<g>
			<defs>
				<polyline id="SVGID_113_" points="197.784,61.605 228.077,68.168 228.399,66.687 196.267,59.723 196.267,84.178 197.784,84.178 
					197.784,61.605 				"/>
			</defs>
			<clipPath id="SVGID_74_">
				<use xlink:href="#SVGID_113_"  overflow="visible"/>
			</clipPath>
			<rect x="191.267" y="54.723" clip-path="url(#SVGID_74_)" fill="#4077B6" width="42.133" height="34.455"/>
		</g>
		<g>
			<defs>
				<polyline id="SVGID_115_" points="231.743,317.239 196.741,321.876 196.741,351.27 198.259,351.27 198.259,323.206 
					231.943,318.742 231.743,317.239 				"/>
			</defs>
			<clipPath id="SVGID_76_">
				<use xlink:href="#SVGID_115_"  overflow="visible"/>
			</clipPath>
			<rect x="191.741" y="312.239" clip-path="url(#SVGID_76_)" fill="#4077B6" width="45.202" height="44.031"/>
		</g>
		<g>
			<defs>
				<polyline id="SVGID_117_" points="197.784,192.116 210.27,192.74 210.345,191.225 196.267,190.521 196.267,216.918 
					197.784,216.918 197.784,192.116 				"/>
			</defs>
			<clipPath id="SVGID_78_">
				<use xlink:href="#SVGID_117_"  overflow="visible"/>
			</clipPath>
			<rect x="191.267" y="185.521" clip-path="url(#SVGID_78_)" fill="#4077B6" width="24.078" height="36.397"/>
		</g>
		<g>
			<defs>
				<polyline id="SVGID_119_" points="201.737,255.034 201.737,310.5 284.466,300.711 284.466,198.919 201.737,197.117 
					201.737,242.329 203.255,242.329 203.255,198.667 282.947,200.404 282.947,299.364 203.255,308.792 203.255,255.034 
					201.737,255.034 				"/>
			</defs>
			<clipPath id="SVGID_80_">
				<use xlink:href="#SVGID_119_"  overflow="visible"/>
			</clipPath>
			<rect x="196.737" y="192.117" clip-path="url(#SVGID_80_)" fill="#4077B6" width="92.729" height="123.383"/>
		</g>
		<g>
			<defs>
				<polyline id="SVGID_121_" points="286.87,303.781 270.815,306.243 271.045,307.741 288.388,305.083 288.388,293.338 
					286.87,293.338 286.87,303.781 				"/>
			</defs>
			<clipPath id="SVGID_82_">
				<use xlink:href="#SVGID_121_"  overflow="visible"/>
			</clipPath>
			<rect x="265.815" y="288.338" clip-path="url(#SVGID_82_)" fill="#4077B6" width="27.572" height="24.402"/>
		</g>
		<g>
			<defs>
				<polyline id="SVGID_123_" points="286.87,415.388 265.161,421.428 265.569,422.889 288.388,416.542 288.388,315.968 
					286.87,315.968 286.87,415.388 				"/>
			</defs>
			<clipPath id="SVGID_84_">
				<use xlink:href="#SVGID_123_"  overflow="visible"/>
			</clipPath>
			<rect x="260.161" y="310.968" clip-path="url(#SVGID_84_)" fill="#4077B6" width="33.227" height="116.921"/>
		</g>
		<g>
			<defs>
				<rect id="SVGID_125_" x="286.87" y="212.556" width="1.518" height="56.636"/>
			</defs>
			<clipPath id="SVGID_86_">
				<use xlink:href="#SVGID_125_"  overflow="visible"/>
			</clipPath>
			<rect x="281.87" y="207.556" clip-path="url(#SVGID_86_)" fill="#4077B6" width="11.518" height="66.636"/>
		</g>
		<g>
			<defs>
				<polyline id="SVGID_127_" points="286.87,189.083 220.292,187.051 220.246,188.569 288.388,190.647 288.388,161.673 
					286.87,161.673 286.87,189.083 				"/>
			</defs>
			<clipPath id="SVGID_88_">
				<use xlink:href="#SVGID_127_"  overflow="visible"/>
			</clipPath>
			<rect x="215.246" y="156.673" clip-path="url(#SVGID_88_)" fill="#4077B6" width="78.142" height="38.974"/>
		</g>
		<g>
			<defs>
				<path id="SVGID_129_" d="M302.19,252.606c0.002-0.001,0.002-0.001,0.004-0.001h0.002l0.002-0.001l0.002-0.001
					c0-0.002,0.002,0,0.002-0.001c0.052-0.015,0.097-0.021,0.148-0.021v0.515l-0.162-0.489
					C302.189,252.607,302.19,252.606,302.19,252.606z M301.3,252.377c-0.087,0-0.172,0.005-0.256,0.016
					c-0.281,0.035-0.553,0.129-0.82,0.29l0.812,1.281c0.012-0.006,0.021-0.012,0.031-0.018c0.108-0.054,0.246-0.062,0.377-0.04
					c0.011,0.002,0.02,0.003,0.03,0.006c0.011,0.001,0.022,0.004,0.033,0.006c0.063,0.012,0.124,0.028,0.182,0.044
					c0.034,0.01,0.067,0.02,0.099,0.028c0.029,0.009,0.058,0.018,0.086,0.024c0.153,0.044,0.311,0.081,0.477,0.081h0.002
					c0.021,0,0.041,0,0.061-0.002c0.002-0.001,0.002-0.001,0.006,0c0.087-0.006,0.17-0.021,0.249-0.048l-0.308-0.919l0.027-0.546
					c-0.051-0.008-0.11-0.028-0.179-0.048c-0.14-0.041-0.296-0.085-0.464-0.115c-0.109-0.02-0.221-0.033-0.345-0.038
					C301.368,252.378,301.334,252.377,301.3,252.377z"/>
			</defs>
			<clipPath id="SVGID_90_">
				<use xlink:href="#SVGID_129_"  overflow="visible"/>
			</clipPath>
			<rect x="295.224" y="247.377" clip-path="url(#SVGID_90_)" fill="#4077B6" width="12.444" height="11.719"/>
		</g>
		<g>
			<defs>
				<path id="SVGID_131_" d="M203.255,68.85l79.692,15.134v98.962l-79.692-2.978V68.85z M201.737,181.429l82.729,3.091V82.729
					l-82.729-15.712V181.429z"/>
			</defs>
			<clipPath id="SVGID_92_">
				<use xlink:href="#SVGID_131_"  overflow="visible"/>
			</clipPath>
			<rect x="196.737" y="62.017" clip-path="url(#SVGID_92_)" fill="#4077B6" width="92.729" height="127.503"/>
		</g>
		<g>
			<defs>
				<path id="SVGID_133_" d="M203.255,328.511l79.692-10.916v93.105l-79.692,20.841V328.511z M284.466,411.872v-96.016
					l-82.729,11.333v106.318L284.466,411.872L284.466,411.872z"/>
			</defs>
			<clipPath id="SVGID_94_">
				<use xlink:href="#SVGID_133_"  overflow="visible"/>
			</clipPath>
			<rect x="196.737" y="310.856" clip-path="url(#SVGID_94_)" fill="#4077B6" width="92.729" height="127.651"/>
		</g>
		<g>
			<defs>
				<path id="SVGID_135_" d="M201.521,250.957c-1.702-0.188-3.613-1.027-5.463-2.409c-1.165-0.87-2.297-1.312-3.365-1.312
					c-0.258,0-0.494,0.03-0.719,0.075c-0.738,0.145-1.309,0.49-1.708,0.831c-0.312,0.268-0.522,0.528-0.632,0.679
					c-0.052,0.04-0.109,0.082-0.17,0.125c-0.047,0.033-0.101,0.068-0.154,0.104c-0.02,0.013-0.037,0.025-0.057,0.037
					c-0.046,0.03-0.097,0.061-0.146,0.091c-0.037,0.023-0.073,0.045-0.111,0.068c-0.032,0.019-0.066,0.036-0.1,0.054
					c-0.06,0.033-0.119,0.065-0.18,0.096c-0.016,0.009-0.031,0.017-0.049,0.023c-0.074,0.037-0.15,0.072-0.227,0.104
					c-0.008,0.003-0.016,0.006-0.024,0.01c-0.079,0.032-0.159,0.062-0.237,0.087c-0.018,0.006-0.035,0.01-0.053,0.014
					c-0.067,0.02-0.134,0.039-0.199,0.051c-0.082,0.016-0.163,0.025-0.24,0.025c-0.217,0-0.369-0.057-0.506-0.343
					c-0.576-1.212-0.58-2.154-0.392-2.633c0.116-0.297,0.278-0.36,0.331-0.381c0.254-0.101,0.803-0.15,1.635-0.15
					c0.322,0,0.652,0.007,0.969,0.014c0.299,0.006,0.586,0.012,0.844,0.012c0.595,0,0.939-0.032,1.188-0.111l0.219-0.075
					c0.434-0.152,1.24-0.438,2.17-0.438c1.162,0,2.181,0.455,3.024,1.353c2.013,2.14,3.394,3.298,4.931,3.298
					c0.395,0,0.781-0.077,1.184-0.236c1.242-0.491,2.931-2.109,4.419-3.631c0.143,0.083,0.247,0.172,0.261,0.226
					c0,0.001,0.001,0.061-0.088,0.193c-0.551,0.824-1.52,2.134-2.668,3.067c-0.383,0.311-0.785,0.581-1.199,0.776
					c-0.48,0.228-1.092,0.347-1.771,0.347C202.002,250.997,201.763,250.983,201.521,250.957z M204.656,252.021
					c1.888-0.894,3.478-2.871,4.481-4.372c0.273-0.412,0.354-0.783,0.341-1.089c-0.006-0.184-0.045-0.343-0.095-0.474
					c-0.339-0.918-1.438-1.268-1.654-1.328l-0.404-0.113l-0.311,0.283c-0.064,0.058-0.199,0.195-0.389,0.387
					c-0.689,0.706-2.789,2.854-3.902,3.293c-0.221,0.087-0.426,0.13-0.625,0.13c-0.633,0-1.394-0.444-2.54-1.523
					c-0.382-0.359-0.808-0.789-1.284-1.297c-1.143-1.214-2.531-1.83-4.131-1.83c-1.189,0-2.193,0.354-2.675,0.523l-0.174,0.06
					c-0.033,0.01-0.184,0.04-0.728,0.04c-0.248,0-0.523-0.005-0.812-0.011c-0.326-0.007-0.667-0.014-1-0.014
					c-1.08,0-1.736,0.076-2.189,0.255c-0.543,0.214-0.953,0.642-1.189,1.236c-0.029,0.075-0.056,0.152-0.079,0.231
					c0.201-1.427,0.896-3.195,2.62-3.195c1.816,0,2.174,0.537,2.183,0.552c-0.001-0.003-0.014-0.025-0.028-0.073l1.448-0.452
					c-0.079-0.258-0.632-1.543-3.603-1.543c-2.889,0-4.205,2.915-4.205,5.626c0,3.941,1.405,5.941,4.174,5.941
					c3.021,0,4.088-1.831,4.23-2.798l-1.5-0.233c-0.028,0.155-0.347,1.514-2.73,1.514c-1.615,0-2.426-0.996-2.613-3.286
					c0.002,0.014,0.008,0.026,0.01,0.039c0.047,0.209,0.107,0.422,0.179,0.638c0.02,0.061,0.04,0.121,0.063,0.183
					c0.082,0.231,0.174,0.465,0.285,0.698c0.371,0.779,1.038,1.208,1.877,1.208c0.343,0,0.689-0.072,1.021-0.184
					c0.994-0.333,1.848-1.012,1.969-1.111l0.1-0.081l0.066-0.109c0.004-0.006,0.014-0.022,0.033-0.048
					c0.141-0.194,0.756-0.94,1.816-0.94c0.732,0,1.56,0.34,2.456,1.01c2.374,1.774,4.892,2.751,7.087,2.751
					C203.151,252.513,203.966,252.348,204.656,252.021z"/>
			</defs>
			<clipPath id="SVGID_96_">
				<use xlink:href="#SVGID_135_"  overflow="visible"/>
			</clipPath>
			<rect x="178.712" y="236.697" clip-path="url(#SVGID_96_)" fill="#4077B6" width="35.768" height="21.567"/>
		</g>
		<g>
			<defs>
				<path id="SVGID_137_" d="M187.917,265.902c-0.941,0-1.992-1.499-1.992-3.649c0-2.151,1.051-3.651,1.992-3.651
					c0.942,0,1.993,1.5,1.993,3.651C189.91,264.403,188.859,265.902,187.917,265.902z M187.917,257.084
					c-1.969,0-3.51,2.27-3.51,5.168c0,2.897,1.541,5.167,3.51,5.167s3.511-2.27,3.511-5.167
					C191.428,259.354,189.886,257.084,187.917,257.084z"/>
			</defs>
			<clipPath id="SVGID_98_">
				<use xlink:href="#SVGID_137_"  overflow="visible"/>
			</clipPath>
			<rect x="179.407" y="252.084" clip-path="url(#SVGID_98_)" fill="#4077B6" width="17.021" height="20.335"/>
		</g>
		<g opacity="0.3" enable-background="new    ">
			<g>
				<defs>
					<rect id="SVGID_139_" x="62.915" y="411.471" width="345" height="100"/>
				</defs>
				<clipPath id="SVGID_100_">
					<use xlink:href="#SVGID_139_"  overflow="visible"/>
				</clipPath>
				<g clip-path="url(#SVGID_100_)">
					<defs>
						<rect id="SVGID_141_" x="61.915" y="411.471" width="346" height="100"/>
					</defs>
					<clipPath id="SVGID_102_">
						<use xlink:href="#SVGID_141_"  overflow="visible"/>
					</clipPath>
					<g clip-path="url(#SVGID_102_)" enable-background="new    ">
						<g>
							<defs>
								<rect id="SVGID_143_" x="62.915" y="411.471" width="345" height="100"/>
							</defs>
							<clipPath id="SVGID_104_">
								<use xlink:href="#SVGID_143_"  overflow="visible"/>
							</clipPath>
							<g clip-path="url(#SVGID_104_)">
								<defs>
									<path id="SVGID_145_" d="M323.434,438.538l-0.419-1.456c0.781-0.232,78.137-23.263,83.551-24.764l0.393,1.463
										C401.558,415.277,324.215,438.304,323.434,438.538"/>
								</defs>
								<clipPath id="SVGID_106_">
									<use xlink:href="#SVGID_145_"  overflow="visible"/>
								</clipPath>
								<g clip-path="url(#SVGID_106_)">
									<defs>
										<rect id="SVGID_147_" x="61.915" y="411.471" width="346" height="100"/>
									</defs>
									<clipPath id="SVGID_108_">
										<use xlink:href="#SVGID_147_"  overflow="visible"/>
									</clipPath>
									<rect x="318.015" y="407.318" clip-path="url(#SVGID_108_)" fill="#4077B6" width="93.943" height="36.22"/>
								</g>
							</g>
							<g clip-path="url(#SVGID_104_)">
								<defs>
									<path id="SVGID_149_" d="M62.937,510.83v-1.516c2.295-0.05,52.883-13.817,86.325-23.061l0.392,1.463
										C141.093,490.082,65.933,510.83,62.937,510.83"/>
								</defs>
								<clipPath id="SVGID_110_">
									<use xlink:href="#SVGID_149_"  overflow="visible"/>
								</clipPath>
								<g clip-path="url(#SVGID_110_)">
									<defs>
										<rect id="SVGID_151_" x="61.915" y="411.471" width="346" height="100"/>
									</defs>
									<clipPath id="SVGID_112_">
										<use xlink:href="#SVGID_151_"  overflow="visible"/>
									</clipPath>
									<rect x="57.937" y="481.253" clip-path="url(#SVGID_112_)" fill="#4077B6" width="96.717" height="34.576"/>
								</g>
							</g>
						</g>
					</g>
				</g>
			</g>
		</g>
	</g>
</g>
</svg>
